<?xml version="1.0" encoding="UTF-8"?> <svg xmlns="http://www.w3.org/2000/svg" id="Capa_1" data-name="Capa 1" viewBox="0 0 1024 340.3"><defs><style>.cls-1,.cls-10,.cls-2{fill:#eee;}.cls-2{stroke:#000;stroke-miterlimit:10;stroke-width:0.25px;}.cls-3{fill:#c6c5c6;}.cls-4{fill:#e73a3f;}.cls-5{fill:#294756;}.cls-18,.cls-6,.cls-7,.cls-9{fill:#162831;}.cls-18,.cls-7{font-size:16.51px;}.cls-10,.cls-18,.cls-7,.cls-9{font-family:Raleway-Bold, Raleway;font-weight:700;}.cls-8{letter-spacing:-0.03em;}.cls-10,.cls-9{font-size:13.76px;}.cls-11{letter-spacing:0em;}.cls-12{letter-spacing:-0.01em;}.cls-13{letter-spacing:0em;}.cls-14{letter-spacing:-0.01em;}.cls-15{letter-spacing:0em;}.cls-16{letter-spacing:-0.02em;}.cls-17{letter-spacing:-0.03em;}.cls-18{letter-spacing:-0.01em;}.cls-19{letter-spacing:-0.02em;}.cls-20{letter-spacing:0em;}</style></defs><title>01_COLOR</title><rect class="cls-1" y="0.02" width="1024" height="338"></rect><rect class="cls-2" x="68.89" y="90.92" width="121.38" height="121.38" rx="60.69" ry="60.69"></rect><rect class="cls-3" x="260.07" y="90.92" width="121.38" height="121.38" rx="60.69" ry="60.69"></rect><rect class="cls-4" x="451.25" y="90.92" width="121.38" height="121.38" rx="60.69" ry="60.69"></rect><rect class="cls-5" x="642.44" y="90.92" width="121.38" height="121.38" rx="60.69" ry="60.69"></rect><rect class="cls-6" x="833.62" y="90.92" width="121.38" height="121.38" rx="60.69" ry="60.69"></rect><text class="cls-7" transform="translate(106.43 246.53)"><tspan class="cls-8">f</tspan><tspan x="5.68" y="0">ondo</tspan></text><text class="cls-9" transform="translate(99.9 158.48)">#eeeeee</text><text class="cls-9" transform="translate(291.64 158.48)">#c6c6c6</text><text class="cls-10" transform="translate(483.16 158.48)">#e7393e</text><text class="cls-10" transform="translate(674.04 158.48)">#284656</text><text class="cls-10" transform="translate(865.98 158.48)">#162730</text><text class="cls-7" transform="translate(260 246.53)">gris secundario</text><text class="cls-7" transform="translate(448.07 246.53)">pu<tspan class="cls-11" x="20.67" y="0">n</tspan><tspan class="cls-12" x="30.56" y="0">t</tspan><tspan x="36.68" y="0">os </tspan><tspan class="cls-13" x="58.85" y="0">a</tspan><tspan class="cls-14" x="68.26" y="0">t</tspan><tspan x="74.39" y="0">ención</tspan></text><text class="cls-7" transform="translate(646.31 246.53)"><tspan class="cls-15">c</tspan><tspan x="9.23" y="0">olo</tspan><tspan class="cls-16" x="34.47" y="0">r</tspan><tspan x="40.46" y="0" xml:space="preserve"> principa</tspan><tspan class="cls-17" x="108.92" y="0">l</tspan></text><text class="cls-18" transform="translate(874.01 246.53)">t<tspan class="cls-19" x="6.13" y="0">e</tspan><tspan class="cls-20" x="15.7" y="0">x</tspan><tspan class="cls-14" x="24.47" y="0">t</tspan><tspan class="cls-20" x="30.59" y="0">o</tspan></text></svg> 