<?xml version="1.0" encoding="UTF-8"?> <svg xmlns="http://www.w3.org/2000/svg" id="Capa_1" data-name="Capa 1" viewBox="0 0 1700 700"><defs><style>.cls-1{fill:#2e2a25;}.cls-2{fill:#fcebed;}.cls-3{fill:#3b3431;}.cls-4{fill:#f5c1c6;}.cls-5{fill:#674f50;}.cls-6{fill:#f8d6da;}.cls-7{fill:#504343;}.cls-8{fill:#f6c5ca;}.cls-9{fill:#644d4e;}.cls-10{fill:#ee7b8c;}.cls-11{fill:#a3525e;}.cls-12{fill:#f194a0;}.cls-13{fill:#90565e;}.cls-14{fill:#fef5f6;}.cls-15{fill:#332d2a;}.cls-16{fill:#fbecec;}.cls-17{fill:#3a3431;}.cls-18{fill:#ee9c99;}.cls-19{fill:#8f5c5a;}.cls-20{fill:#f0b1af;}.cls-21{fill:#7b5857;}.cls-22{fill:#fdf6f6;}.cls-23{fill:#e5f3f3;}.cls-24{fill:#4b4e4c;}.cls-25{fill:#f2f9f9;}.cls-26{fill:#393735;}.cls-27{fill:#cde8e8;}.cls-28{fill:#687776;}.cls-29{fill:#adadce;}.cls-30{fill:#565667;}.cls-31{fill:#ebebf3;}.cls-32{fill:#373433;}.cls-33{fill:#d7d7e6;}.cls-34{fill:#454347;}.cls-35{fill:#f5f5f9;}.cls-36{fill:#312d2a;}.cls-37{fill:#9e9ec7;}.cls-38{fill:#58576f;}.cls-39{fill:#9091c0;}.cls-40{fill:#e1e1ec;}.cls-41{fill:#3e3b3c;}.cls-42{fill:#bebed7;}.cls-43{fill:#52515c;}.cls-44{fill:#d9d9e7;}.cls-45{fill:#c6c6dc;}.cls-46{fill:#f2aab3;}.cls-47{fill:#7c5559;}.cls-48{fill:#cfb7d7;}.cls-49{fill:#6a5c6d;}</style></defs><title>Mesa de trabajo 1</title><polygon class="cls-1" points="420.36 362.77 420.36 381.43 401.83 381.43 401.83 367.28 372.22 367.28 372.22 348.37 401.83 348.37 401.83 362.77 420.36 362.77"></polygon><rect class="cls-1" x="401.82" y="329.03" width="17.87" height="4.8"></rect><polygon class="cls-2" points="448.25 341.53 414.91 341.53 414.91 342.2 414.91 362.77 420.36 362.77 420.36 375.28 448.25 375.28 448.25 341.53"></polygon><rect class="cls-3" x="414.9" y="362.77" width="5.45" height="12.51"></rect><polygon class="cls-2" points="414.9 308.45 381.56 308.45 381.56 342.2 414.9 342.2 414.9 341.53 414.9 333.83 401.81 333.83 401.81 329.03 414.9 329.03 414.9 308.45"></polygon><rect class="cls-3" x="401.81" y="329.03" width="13.09" height="4.8"></rect><path class="cls-1" d="M482.23,382.21H464.76A36.6,36.6,0,0,1,455,357.29h13.86c0-1.71,0-3.43,0-5.26,0-12.22.65-21.47,1.73-27.58a29.47,29.47,0,0,1,8.49-16.17c9.24-9.25,18.49-13,30.88-13,21.47,0,37.31,12.54,41.09,35.3H528.92c-2.36-9.57-8.31-15.85-18.81-15.85-5.95,0-10.37,1.58-13,4.71a22.45,22.45,0,0,0-5.31,11c-.8,4.23-1.12,11.42-1.12,21.63,0,1.86,0,3.59,0,5.26H477a15.87,15.87,0,0,0,5.21,12.79v12.13"></path><path class="cls-1" d="M528.93,373.51H551c-3.78,22.59-19.78,35.27-41.09,35.27a43.12,43.12,0,0,1-5.73-.35v12.32h-22v-4.68h18s-17.06-7-17.06-33.86h21.06v6.5a24,24,0,0,0,5.89.64c10.5,0,16.45-6.28,18.82-15.84"></path><path class="cls-1" d="M657.87,357.18v8h-14a111.46,111.46,0,0,1-1.44,14.6c-1.09,6.11-4.23,11.62-9.41,16.77-8.13,8.16-17.38,12.23-30.09,12.23-12.54,0-21.79-3.75-31-13a29.59,29.59,0,0,1-8.64-16c-1.09-6.11-1.57-15.36-1.57-27.75,0-12.22.64-21.47,1.73-27.58a29.2,29.2,0,0,1,8.48-16.17c9.25-9.25,18.34-13,31-13,12.39,0,21.8,3.77,30.72,13a30.65,30.65,0,0,1,8.62,16.29c.48,2.63.86,5.77,1.21,9.41H629.29v23.2h-22.4V334H621.8c-.16-1.47-.32-2.72-.51-3.75a20.26,20.26,0,0,0-4.38-9.56c-3.46-3.94-8.16-6-14-6a18.1,18.1,0,0,0-14.59,6.44c-1.89,2-3.14,5.16-3.93,9.08-.62,3.91-.94,11.14-.94,21.8,0,11,.32,18.34.94,22.12a21.79,21.79,0,0,0,5.18,10.34c3,3.29,7.36,4.86,13.34,4.86,5.8,0,10.18-1.57,12.84-4.71a23,23,0,0,0,5.34-11.13,70.93,70.93,0,0,0,.93-8.33h12.52v-8h23.29"></path><path class="cls-4" d="M470.2,326.83H442v33.76h13.22c-.1-1.07-.15-2.17-.15-3.31h13.86c0-1.7,0-3.42,0-5.25a189.59,189.59,0,0,1,1.35-25.2"></path><path class="cls-5" d="M475.31,326.83H470.2a189.59,189.59,0,0,0-1.35,25.2c0,1.83,0,3.55,0,5.25H455c0,1.14.05,2.24.15,3.31h20.13V326.83"></path><path class="cls-2" d="M508.66,327.68H492.43a24,24,0,0,0-.66,2.72c-.8,4.22-1.12,11.43-1.12,21.63,0,1.86,0,3.59,0,5.25H477a12.63,12.63,0,0,0,.13,3.31h31.51V327.68"></path><path class="cls-3" d="M475.31,326.83h0v33.76h1.84a12.63,12.63,0,0,1-.13-3.31h13.66c0-1.66,0-3.39,0-5.25,0-10.21.32-17.41,1.12-21.63a24,24,0,0,1,.66-2.72H475.31v-.85"></path><path class="cls-6" d="M508.66,293.93H475.31v18.84a32.2,32.2,0,0,1,3.76-4.49c8.92-8.92,17.85-12.75,29.59-13v-1.34m0,20.82c-5.22.24-9.14,1.8-11.58,4.67a22.1,22.1,0,0,0-4.37,7.42h16V314.75"></path><path class="cls-7" d="M508.66,295.27c-11.74.26-20.67,4.09-29.59,13a32.79,32.79,0,0,0-3.76,4.49v14.06h17.4a22.15,22.15,0,0,1,4.37-7.41c2.44-2.88,6.36-4.43,11.58-4.67V295.27"></path><path class="cls-8" d="M508.66,326.83h-16c-.1.28-.19.56-.28.85h16.23v-.85"></path><path class="cls-9" d="M492.71,326.83h-17.4v.85h17.12c.09-.29.18-.57.28-.85"></path><rect class="cls-6" x="612.36" y="259.71" width="33.35" height="33.75"></rect><path class="cls-10" d="M645.71,293.92H612.36v2.19c8,1.58,14.79,5.41,21.31,12.17a30.65,30.65,0,0,1,8.62,16.29c.17,1,.34,2,.49,3.11h2.93V293.92M612.36,317v10.7h8.29a18.83,18.83,0,0,0-3.74-7,17.17,17.17,0,0,0-4.55-3.68"></path><path class="cls-11" d="M612.36,296.11V317a17,17,0,0,1,4.55,3.69,18.71,18.71,0,0,1,3.74,7h22.13c-.15-1.1-.32-2.14-.49-3.11a30.65,30.65,0,0,0-8.62-16.29c-6.52-6.76-13.3-10.59-21.31-12.17"></path><path class="cls-12" d="M645.71,328.14h-2.87c.24,1.78.46,3.72.66,5.84H629.29v23.2H612.36v4.72h22.21v-4.72h11.14v-29m-24.92,0h-8.43V334h9.45c-.17-1.47-.32-2.72-.52-3.75-.15-.72-.31-1.42-.5-2.09"></path><path class="cls-13" d="M642.84,328.14H620.79c.19.67.35,1.37.5,2.1.2,1,.35,2.27.52,3.74h-9.45v23.2h16.93V334H643.5c-.2-2.12-.42-4.06-.66-5.84m2.87,29H634.57v4.71h11.14Z"></path><path class="cls-2" d="M612.36,293.93H579v8.32c7-4.9,14.47-7,23.93-7a48.63,48.63,0,0,1,9.41.86v-2.18M603,314.72a18.09,18.09,0,0,0-14.59,6.43,15.74,15.74,0,0,0-3.32,6.53h27.32V317a19.1,19.1,0,0,0-9.41-2.26"></path><path class="cls-3" d="M603,295.26c-9.46,0-16.92,2.09-23.93,7v25.43h6a15.68,15.68,0,0,1,3.32-6.53A18.12,18.12,0,0,1,603,314.72a19.1,19.1,0,0,1,9.41,2.26V296.11a48.64,48.64,0,0,0-9.41-.85"></path><path class="cls-4" d="M612.36,328.14H584.91c-.18.67-.34,1.37-.48,2.09-.62,3.91-.94,11.15-.94,21.8q0,5.55.11,9.87h28.76v-4.72h-5.47V334h5.47v-5.84"></path><path class="cls-5" d="M584.91,328.14H579V361.9h4.59q-.11-4.32-.11-9.87c0-10.66.33-17.89.93-21.79.15-.73.31-1.43.49-2.1M612.36,334h-5.47v23.2h5.47Z"></path><path class="cls-10" d="M634.57,362.35H612.36v25a11.52,11.52,0,0,0,3.42-2.73,23,23,0,0,0,5.35-11.13,70.93,70.93,0,0,0,.93-8.33h12.51v-2.83m11.14,2.83h-1.82a109.68,109.68,0,0,1-1.45,14.6c-1.05,5.94-4,11.3-9,16.33h12.23V365.18"></path><path class="cls-11" d="M645.71,362.35H634.57v2.84H622.06a71,71,0,0,1-.93,8.32,23,23,0,0,1-5.35,11.13,11.37,11.37,0,0,1-3.42,2.73v8.74h21.12c4.92-5,7.91-10.39,9-16.33a109.68,109.68,0,0,0,1.45-14.59h1.82v-2.84"></path><path class="cls-6" d="M578.81,401.65v28h33.35V408a48.78,48.78,0,0,1-9.21.82c-9.45,0-17-2.12-24.14-7.13"></path><path class="cls-7" d="M612.16,395.91H578.81v5.75c7.12,5,14.7,7.12,24.14,7.12a49.54,49.54,0,0,0,9.21-.82v-12"></path><polygon class="cls-2" points="679.06 328.14 645.71 328.14 645.71 357.18 657.87 357.18 657.87 361.89 679.06 361.89 679.06 328.14"></polygon><rect class="cls-3" x="645.71" y="357.18" width="12.16" height="4.71"></rect><polygon class="cls-4" points="679.06 362.35 657.87 362.35 657.87 365.19 645.71 365.19 645.71 396.11 679.06 396.11 679.06 362.35"></polygon><rect class="cls-5" x="645.71" y="362.35" width="12.16" height="2.83"></rect><polygon class="cls-1" points="1538.56 409.09 1538.56 412.16 1541.63 409.09 1538.56 409.09"></polygon><path class="cls-1" d="M1504.7,372.16v2a21,21,0,0,1-8.93-2h8.93"></path><path class="cls-1" d="M1339.46,342v14.11c0,9.09-.64,16.61-2,22.4a32.52,32.52,0,0,1-9.25,16.17c-6.88,6.91-17.69,10.66-29.47,10.66h-40.3v-41.9H1243.7v-13h21.83v13h14.66v22.47h16.45c7.07,0,12.1-1.73,14.91-5.19a21.35,21.35,0,0,0,5.15-11.46q1-6.33,1-20.23,0-13.38-1-19.26A18.26,18.26,0,0,0,1313,320c-3.77-4.54-8.77-6.91-16.32-6.91h-16.45v19.1h13.73V349.5h-21.19V332.21h-14.34V293.68h40.3c11.9,0,21.79,3,30.44,11.59a30,30,0,0,1,8.28,14.91c1.41,5.63,2,12.83,2,21.8"></path><path class="cls-1" d="M1445.07,332h-5.27c.41,4.92.67,10.75.67,17.47,0,12.38-.64,21.63-1.73,27.74s-4.26,11.62-9.41,16.77c-8.16,8.17-17.41,12.26-30.12,12.26-12.54,0-21.79-3.77-31-13a30,30,0,0,1-8.64-16c-1.09-6.11-1.57-15.36-1.57-27.74s.64-21.47,1.73-27.59a29.62,29.62,0,0,1,8.48-16.16c9.12-9.12,18.08-12.93,30.5-13V282s5.06-2.11,16.26-2.11,14.14,3.07,14.14,3.07H1402c22.94,9.31,23.87,33.19,23.87,33.19H1404c0-6.78-5.34-4-5.34-4v0a18,18,0,0,0-14.05,6.4c-1.89,2-3.14,5.16-3.91,9.1s-1,11.13-1,21.79q0,16.46,1,22.11a21.43,21.43,0,0,0,5.16,10.34c3,3.29,7.39,4.86,13.34,4.86,5.79,0,10.18-1.57,12.87-4.7a23,23,0,0,0,5.31-11.13c.8-4.23,1.25-11.31,1.25-21.48,0-7.52-.13-13.35-.51-17.47H1430V317h9.35l5.72,5.73V332"></path><path class="cls-1" d="M1547.49,375h-29.06c-7.74,12.13-13.89,12.81-13.89,12.81v28h-12.13v-9.51c-17.19-.15-29.29-4.15-39.72-14.75l14.12-14.11c6.46,6.46,15.1,9.18,25.6,9.37v13.38s6.95.54,6.95-11.2-6.95-12-6.95-12v-1.31h12.29v-1.48h6.53a18.19,18.19,0,0,0,8.8-2h-6.53c-.09-3.61-.9-6.17-2.46-7.61-3.3-3.13-6-4.22-10.82-4.87l-13.51-1.86c-19-2.68-29.63-12.54-29.63-31.2q0-15.32,10.33-24.48c7.08-6.27,16.49-9.41,28.55-9.41a76.52,76.52,0,0,1,11.52.8V279.89h9.35s12.38.67,21.48,7.07v14.53l-5.35,5.34s-7.46-8-21.19-8a24.29,24.29,0,0,1-4.29-.41V313.3a42.86,42.86,0,0,0-12.12-1.6c-11.3,0-17.26,5.79-17.26,14.11a12.83,12.83,0,0,0,.61,4.39c1.12,2.53,4.26,6.75,13,8l13.15,1.89c9.41,1.4,16,3.9,19.94,7.52,7.93,7,10,14.5,10,24.54h9.85a2.65,2.65,0,0,1,2.79,2.82"></path><path class="cls-2" d="M1430,323.62h-29.74v33.76h18.27q.1-3.57.11-7.88c0-7.52-.13-13.35-.51-17.48H1430v-8.4"></path><path class="cls-3" d="M1433.61,323.62H1430V332h-11.87c.38,4.13.51,10,.51,17.48q0,4.31-.11,7.88h15.08V323.62"></path><path class="cls-6" d="M1457.18,323.62h-12.11V332h-5.27c.41,4.93.66,10.76.66,17.48q0,4.17-.09,7.88H1467v-7.2c-6.45-5.22-9.88-13-9.88-23.57,0-1,0-2,.1-3"></path><path class="cls-7" d="M1445.07,323.62h-11.46v33.76h6.76c.06-2.47.1-5.1.1-7.88,0-6.72-.26-12.55-.67-17.48h5.27v-8.4"></path><path class="cls-7" d="M1467,323.62h-9.78c-.07,1-.1,2-.1,3,0,10.6,3.43,18.35,9.88,23.57V323.62"></path><path class="cls-2" d="M1500.3,323.62h-22a15.69,15.69,0,0,0-.15,2.19,13.08,13.08,0,0,0,.61,4.39c1.12,2.53,4.26,6.75,13,8l8.56,1.23V323.62M1467,350.18v7.2H1484c-7-1.3-12.71-3.67-17.07-7.2"></path><path class="cls-3" d="M1478.25,323.62H1467v26.56c4.36,3.53,10.09,5.9,17.07,7.2h16.27V339.43l-8.56-1.23c-8.77-1.25-11.91-5.47-13-8a13.08,13.08,0,0,1-.61-4.39,15.69,15.69,0,0,1,.15-2.19"></path><path class="cls-14" d="M1500.3,289.87H1467v12.68l.45-.41c7.08-6.28,16.49-9.42,28.55-9.42,1.49,0,2.94,0,4.34.1v-2.95m-5,21.83c-10.27,0-16.13,4.79-17.1,11.92h22V311.94q-2.41-.24-5-.24"></path><path class="cls-15" d="M1496,292.72c-12.06,0-21.47,3.14-28.55,9.41l-.45.42v21.07h11.29c1-7.13,6.83-11.91,17.1-11.91,1.68,0,3.34.07,5,.23V292.82c-1.41-.07-2.86-.1-4.35-.1"></path><path class="cls-4" d="M1533.65,323.62H1500.3v15.81l4.59.66c9.41,1.4,16,3.9,19.94,7.52a28.2,28.2,0,0,1,7.41,9.77h1.41V323.62"></path><path class="cls-5" d="M1500.3,339.43v17.95h31.94a28.2,28.2,0,0,0-7.41-9.77c-3.93-3.61-10.53-6.11-19.94-7.52l-4.59-.66"></path><path class="cls-2" d="M1467,357.38h-26.59a140.29,140.29,0,0,1-1.63,19.86,29,29,0,0,1-5.13,11.78v2.11h19.47l13.73-13.72.15.15V357.38"></path><path class="cls-3" d="M1440.37,357.38h-6.76V389a29,29,0,0,0,5.13-11.78,138.8,138.8,0,0,0,1.63-19.86"></path><path class="cls-3" d="M1466.81,377.41l-13.73,13.72H1467V377.56l-.15-.15"></path><path class="cls-6" d="M1533.65,357.38h-1.41a26,26,0,0,1,1.41,4v-4m-33.35,2.3v12.47h4.4v2h-.15a21.7,21.7,0,0,1-4.25-.48v1.95h4.4v-1.48h6.53a18.19,18.19,0,0,0,8.8-2h-6.53c-.09-3.61-.89-6.17-2.46-7.61-3.28-3.12-6-4.21-10.74-4.86M1533.65,375h-15.22c-7.75,12.13-13.89,12.81-13.89,12.81v3.35h29.11V375"></path><path class="cls-7" d="M1504.7,372.16h-4.4v1.54a21.7,21.7,0,0,0,4.25.48h.15v-2"></path><path class="cls-7" d="M1532.24,357.38H1500.3v2.3c4.78.65,7.46,1.74,10.74,4.86,1.57,1.44,2.37,4,2.46,7.62H1520a18.19,18.19,0,0,1-8.8,2h-6.53v1.46h-4.4v15.49h4.24v-3.35s6.14-.68,13.89-12.81h15.22V361.42a25.76,25.76,0,0,0-1.41-4"></path><rect class="cls-6" x="1533.65" y="323.62" width="33.35" height="33.76"></rect><polygon class="cls-16" points="1258.39 323.62 1231.38 323.62 1231.38 357.38 1243.7 357.38 1243.7 350.43 1264.73 350.43 1264.73 332.21 1258.39 332.21 1258.39 323.62"></polygon><path class="cls-17" d="M1264.73,323.62h-6.34v8.6h6.34Zm0,26.81h-21v6.95h21Z"></path><polygon class="cls-18" points="1298.08 323.62 1280.19 323.62 1280.19 332.21 1293.92 332.21 1293.92 349.5 1272.73 349.5 1272.73 332.21 1264.73 332.21 1264.73 350.43 1265.53 350.43 1265.53 357.38 1298.08 357.38 1298.08 323.62"></polygon><path class="cls-19" d="M1280.19,323.62h-15.46v8.59h8V349.5h21.19V332.21h-13.73Zm-14.66,26.81h-.8v6.95h.8Z"></path><path class="cls-16" d="M1315.14,323.62h-17.06v33.76h19.48c.07-2.52.11-5.3.11-8.37q0-13.38-1-19.26a21.36,21.36,0,0,0-1.56-6.13"></path><path class="cls-17" d="M1331.43,323.62h-16.29a21.36,21.36,0,0,1,1.56,6.13q1,5.87,1,19.26c0,3.07,0,5.85-.11,8.37h13.87V323.62"></path><polygon class="cls-20" points="1243.7 357.38 1231.38 357.38 1231.38 391.13 1258.39 391.13 1258.39 363.42 1243.7 363.42 1243.7 357.38"></polygon><polygon class="cls-21" points="1264.73 357.38 1264.73 357.38 1243.7 357.38 1243.7 363.42 1258.39 363.42 1258.39 391.13 1264.73 391.13 1264.73 357.38"></polygon><path class="cls-18" d="M1317.56,357.38h-19.48v28.48c6.32-.22,10.85-1.94,13.48-5.16a21.4,21.4,0,0,0,5.14-11.46,102.32,102.32,0,0,0,.86-11.86M1331.43,391l-.13.16h.13V391"></path><path class="cls-19" d="M1331.43,357.38h-13.87a102.14,102.14,0,0,1-.86,11.86,21.4,21.4,0,0,1-5.14,11.46c-2.63,3.22-7.16,4.94-13.48,5.16v5.27h33.22l.13-.16V357.38"></path><path class="cls-18" d="M1359.41,323.62h-21.27a106.49,106.49,0,0,1,1.32,18.36v15.4H1358q-.07-3.7-.08-7.88a182.71,182.71,0,0,1,1.45-25.88"></path><path class="cls-19" d="M1338.14,323.62h-6.71v33.76h8V342a105.49,105.49,0,0,0-1.32-18.36"></path><path class="cls-19" d="M1364.78,323.62h-5.38A184.53,184.53,0,0,0,1358,349.5q0,4.17.07,7.88h6.75V323.62"></path><path class="cls-22" d="M1364.78,289.87h-33.35v17.95a29.75,29.75,0,0,1,6,12.36c.27,1.09.51,2.24.73,3.44h21.25c.09-.59.19-1.17.29-1.71a29.55,29.55,0,0,1,5.09-12.19V289.87"></path><path class="cls-15" d="M1331.43,307.82v15.8h6.71c-.21-1.2-.45-2.35-.73-3.44a29.61,29.61,0,0,0-6-12.36"></path><path class="cls-15" d="M1364.78,309.73a29.4,29.4,0,0,0-5.09,12.18c-.1.55-.2,1.12-.29,1.71h5.38V309.73"></path><rect class="cls-1" x="1011.73" y="294.94" width="21.8" height="111.65"></rect><path class="cls-1" d="M1180.14,368.49,1189,343l5.25-15.1,5.06,15.1,8.57,25.54Zm41.38-20.83L1219.8,343l-2.31-6.3H1226l-3.36-8.38-8.16.06-1.85,0,3.1,9H1200l4.42-10.4-11.75-32h-7.48l-.07.16v14.63h-14.3l-6.73,18.11h21v9.5h-15.36l-2,5.6-23.14,63.63h22.72l6.76-19.75h39.68l6.6,19.75H1243l-21.51-58.92"></path><polygon class="cls-1" points="769.43 294.95 769.43 406.58 747.63 406.58 747.63 341.51 726.32 383.86 711.57 383.86 690.09 341.51 690.09 382.87 700.14 382.87 700.14 393.04 682.03 393.04 682.03 381.75 668.29 381.75 668.29 294.95 689.77 294.95 718.92 355.31 747.95 294.95 769.43 294.95"></polygon><rect class="cls-1" x="653.82" y="405.06" width="17" height="16.4"></rect><rect class="cls-1" x="611.62" y="283.65" width="9" height="15.4"></rect><path class="cls-1" d="M907.14,281.63v21.61H890.56v11.1H875.91v54c0,11.74-3.91,21.15-11.75,28.35-7.68,7.23-17.57,10.85-29.34,10.85s-21.48-3.62-29.32-10.85-11.75-16.61-11.75-28.35V295h21.8v72.59c0,12.7,7.36,20.54,19.27,20.54s19.45-7.52,19.45-20.54v-53.2h14.6v-4.51h4.48v-6.59h13.31V281.63h20.48"></path><polygon class="cls-1" points="985.68 294.95 985.68 406.58 966.26 406.58 922.03 338.06 922.03 406.58 900.23 406.58 900.23 314.63 914.73 314.63 914.73 309.99 934.32 309.99 937 314 931.98 314 963.89 363.31 963.89 294.95 985.68 294.95"></polygon><path class="cls-1" d="M1103,387.6h13.89v7.87h-17.35s3.46-4,3.46-7.87"></path><path class="cls-1" d="M1108.74,403.06a76.36,76.36,0,0,0,8.16-.54V422h-11.62s-7.32.12-13.22-3.74v-11h-.12c-9.76-1-18.18-5.09-26.12-12.77a29.58,29.58,0,0,1-8.45-16c-1.12-6.11-1.57-15.36-1.57-27.74,0-12.23.61-21.48,1.73-27.59A29.45,29.45,0,0,1,1066,307c9.25-9.25,18.5-13,30.89-13,21.5,0,37.31,12.55,41.09,35.3h-22.12c-2.33-9.57-8.28-15.84-18.82-15.84-6,0-10.33,1.57-13,4.7a22.11,22.11,0,0,0-5.34,11c-.8,4.22-1.09,11.43-1.09,21.64,0,10.49.29,17.86,1.09,21.79a22.72,22.72,0,0,0,5.18,10.82,13.31,13.31,0,0,0,8.07,4.22v7.87h4.93s3.87,7.59,11.87,7.59"></path><path class="cls-1" d="M1138,372.24c-2.34,14-9.32,24.13-19.33,29.86V378.16h-1.25V365.75h1.25v6.49Z"></path><polygon class="cls-1" points="1194.49 293.99 1198.89 281.45 1216.1 281.45 1218.9 287.71 1218.9 293.99 1194.49 293.99"></polygon><polygon class="cls-23" points="674.63 408.41 670.82 408.41 670.82 421.47 653.82 421.47 653.82 408.41 641.28 408.41 641.28 442.17 674.63 442.17 674.63 408.41"></polygon><rect class="cls-24" x="653.82" y="408.41" width="17" height="13.05"></rect><polygon class="cls-25" points="668.29 374.66 641.28 374.66 641.28 408.41 653.82 408.41 653.82 405.06 670.82 405.06 670.82 408.41 674.63 408.41 674.63 381.75 668.29 381.75 668.29 374.66"></polygon><rect class="cls-26" x="668.3" y="374.66" width="6.34" height="7.09"></rect><rect class="cls-26" x="653.82" y="405.06" width="17" height="3.35"></rect><polygon class="cls-27" points="706.9 374.66 690.09 374.66 690.09 382.87 700.14 382.87 700.14 393.04 682.02 393.04 682.02 381.75 674.63 381.75 674.63 408.41 707.98 408.41 707.98 376.79 706.9 374.66"></polygon><path class="cls-28" d="M708,374.66H706.9l1.08,2.13Zm-17.89,0H674.63v7.09H682V393h18.11V382.87h-10v-8.21"></path><polygon class="cls-23" points="741.33 374.66 730.95 374.66 726.32 383.86 711.57 383.86 707.98 376.79 707.98 408.41 741.33 408.41 741.33 374.66"></polygon><polygon class="cls-24" points="730.95 374.66 707.98 374.66 707.98 376.79 711.57 383.86 726.32 383.86 730.95 374.66"></polygon><polygon class="cls-6" points="774.68 374.66 769.43 374.66 769.43 406.58 747.63 406.58 747.63 374.66 741.33 374.66 741.33 408.41 774.68 408.41 774.68 374.66"></polygon><rect class="cls-7" x="747.63" y="374.66" width="21.8" height="31.92"></rect><path class="cls-4" d="M794.16,374.66H774.68v33.75H808v-9.56c-.87-.68-1.71-1.4-2.53-2.16a35.27,35.27,0,0,1-11.34-22"></path><path class="cls-5" d="M808,374.66H794.16a35.27,35.27,0,0,0,11.34,22c.82.76,1.66,1.48,2.53,2.16V374.66"></path><path class="cls-6" d="M841.37,374.66H816.44c2.29,8.44,8.89,13.42,18.37,13.42a23.45,23.45,0,0,0,6.56-.87V374.66M808,398.85v9.56h33.34v-1.26a53.66,53.66,0,0,1-6.56.39c-10.51,0-19.41-2.9-26.78-8.69"></path><path class="cls-7" d="M816.44,374.66H808v24.19c7.37,5.79,16.27,8.7,26.79,8.7a51.64,51.64,0,0,0,6.55-.41V387.21a23.43,23.43,0,0,1-6.55.87c-9.49,0-16.09-5-18.38-13.42"></path><path class="cls-2" d="M841.37,340.9H815.55v26.64a27,27,0,0,0,.89,7.12h24.93V340.9"></path><path class="cls-3" d="M815.55,340.9H808v33.76h8.41a27,27,0,0,1-.89-7.12V340.9"></path><polygon class="cls-29" points="976.7 273.07 942.93 273.07 942.93 307.24 963.89 307.24 963.89 294.95 976.7 294.95 976.7 273.07"></polygon><rect class="cls-30" x="963.89" y="294.95" width="12.81" height="12.3"></rect><polygon class="cls-31" points="1010.46 273.07 976.7 273.07 976.7 294.95 985.68 294.95 985.68 307.04 1010.46 307.04 1010.46 273.07"></polygon><polygon class="cls-32" points="985.68 294.95 976.7 294.95 976.7 307.24 976.9 307.24 976.9 307.04 985.68 307.04 985.68 294.95"></polygon><polygon class="cls-33" points="1044.22 273.07 1010.46 273.07 1010.46 307.04 1010.66 307.04 1010.66 307.24 1010.66 307.04 1011.73 307.04 1011.73 294.94 1033.52 294.94 1033.52 307.04 1044.22 307.04 1044.22 273.07"></polygon><rect class="cls-34" x="1011.73" y="294.94" width="21.8" height="12.1"></rect><path class="cls-35" d="M1078,273.07h-33.76v34h.21v0H1066l0,0a46.59,46.59,0,0,1,12-8.95v-25"></path><path class="cls-36" d="M1078,298.07a46.59,46.59,0,0,0-12,8.95l0,0h12v-9"></path><path class="cls-29" d="M1111.75,273.07H1078v25a41,41,0,0,1,18.89-4.08,47.07,47.07,0,0,1,14.88,2.29V273.07"></path><path class="cls-30" d="M1096.87,294a40.78,40.78,0,0,0-18.88,4.09v9h.2v0h33.56V296.28a47.07,47.07,0,0,0-14.88-2.29"></path><polygon class="cls-29" points="1010.46 307.04 1010.46 307.04 1010.46 307.24 985.68 307.24 985.68 341.21 1010.66 341.21 1010.66 307.24 1010.46 307.24 1010.46 307.04"></polygon><rect class="cls-30" x="976.9" y="307.24" width="8.78" height="33.97"></rect><rect class="cls-37" x="985.68" y="307.04" width="24.77" height="0.2"></rect><rect class="cls-38" x="976.9" y="307.04" width="8.78" height="0.2"></rect><rect class="cls-39" x="1010.46" y="307.04" width="0.21" height="0.2"></rect><path class="cls-40" d="M1044.22,307h0v.2h-10.7v34h10.91v-34h-.21Zm-32.49.2h-1.07v34h1.07Z"></path><rect class="cls-41" x="1011.73" y="307.24" width="21.8" height="33.97"></rect><path class="cls-42" d="M1044.22,307h-10.7v.2h10.7Zm-32.49,0h-1.07v.2h1.07Z"></path><rect class="cls-43" x="1011.73" y="307.04" width="21.8" height="0.2"></rect><rect class="cls-44" x="1044.22" y="307.04" width="0.21" height="0.2"></rect><path class="cls-31" d="M1065.76,307.24h-21.33v33.88H1056a127.18,127.18,0,0,1,1.58-17.94,29.43,29.43,0,0,1,8.23-15.94m12.43,25.51c-.23,2.3-.38,5.09-.48,8.37h.48v-8.37"></path><path class="cls-32" d="M1078,307h0v.2h-12.22a29.37,29.37,0,0,0-8.23,15.93,127.49,127.49,0,0,0-1.58,17.95h21.76c.1-3.28.25-6.07.48-8.37V307.24H1078V307"></path><path class="cls-40" d="M1066,307h-21.53v.2h21.33c.06-.07.13-.13.2-.2"></path><path class="cls-41" d="M1078,307h-12l-.2.2H1078V307"></path><rect class="cls-38" x="1077.99" y="307.04" width="0.21" height="0.2"></rect><path class="cls-35" d="M1078.19,341.12h0v.09h-.48c-.08,2.82-.11,6-.11,9.56,0,7.93.16,14.08.59,18.3V341.12m-22.25.09h-11.51v34.08h12.45a207.17,207.17,0,0,1-1.08-24.52q0-5.13.14-9.56"></path><path class="cls-36" d="M1077.71,341.21h-21.77q-.14,4.43-.14,9.56a207.17,207.17,0,0,0,1.08,24.52h21.31v-6.22c-.43-4.22-.59-10.37-.59-18.3,0-3.55,0-6.74.11-9.56"></path><path class="cls-40" d="M1078.19,341.12h-.47a.28.28,0,0,0,0,.09h.48v-.09m-22.24,0h-11.52v.09h11.51s0-.06,0-.09"></path><path class="cls-41" d="M1077.71,341.12H1056a.28.28,0,0,1,0,.09h21.77v-.09"></path><path class="cls-31" d="M1097,313.45c-6,0-10.33,1.57-13,4.7a22.11,22.11,0,0,0-5.34,11c-.2,1-.36,2.24-.5,3.62v8.46H1112V320.49c-3.24-4.43-8.13-7-14.93-7"></path><path class="cls-32" d="M1112,307h-.2v.2h-33.56v25.51c.14-1.38.3-2.59.5-3.62a22.11,22.11,0,0,1,5.34-11c2.66-3.13,7-4.7,13-4.7,6.8,0,11.69,2.61,14.93,7V307"></path><rect class="cls-38" x="1078.19" y="307.04" width="33.56" height="0.2"></rect><path class="cls-29" d="M1145.51,307h-17.45c5,5.68,8.39,13.15,9.9,22.25h-22.12a24.57,24.57,0,0,0-3.89-8.8v20.72h33.77v-34h-.21V307"></path><path class="cls-30" d="M1128.06,307H1112v13.45a24.75,24.75,0,0,1,3.89,8.8H1138c-1.51-9.1-4.94-16.57-9.9-22.25"></path><polygon class="cls-33" points="1179.28 273.07 1145.51 273.07 1145.51 307.04 1145.72 307.04 1145.72 307.24 1179.28 307.24 1179.28 273.07"></polygon><rect class="cls-39" x="1145.51" y="307.04" width="0.21" height="0.2"></rect><path class="cls-29" d="M1213.14,306.94h-16.09l7.35,20-4.42,10.4h13.16v-7.41l-.54-1.58h.54Zm-28,0h-5.72v2.8h5.72Zm9.15,20.91-4.6,13.26h9l-4.44-13.26m-9.15,0h-5.72v9.5h5.72Z"></path><path class="cls-30" d="M1197.05,306.94h-12v2.8h-5.72v18.11h5.72v9.5h-5.72v3.76h10.27l4.6-13.26,4.44,13.26h14.45v-3.76H1200l4.42-10.4Zm16.09,21.42h-.54l.54,1.58v-1.58"></path><polygon class="cls-31" points="1198.7 341.12 1189.65 341.12 1189.01 342.95 1180.14 368.49 1207.89 368.49 1199.31 342.95 1198.7 341.12"></polygon><polygon class="cls-32" points="1213.14 341.12 1198.7 341.12 1199.31 342.95 1207.89 368.49 1180.14 368.49 1189.01 342.95 1189.64 341.12 1179.38 341.12 1179.38 375.29 1213.14 375.29 1213.14 341.12"></polygon><path class="cls-33" d="M1213.14,306.94h0v21.42l1.31,0,8.16-.07,3.36,8.39h-8.48l1.63,4.46h27.78V307.24h-33.76Zm0,23v7.41h2.56l-2.56-7.41"></path><polygon class="cls-34" points="1222.61 328.26 1214.45 328.33 1213.14 328.35 1213.14 329.94 1215.7 337.36 1213.14 337.36 1213.14 341.11 1219.12 341.11 1217.49 336.65 1225.97 336.65 1222.61 328.26"></polygon><polygon class="cls-31" points="1246.9 273.07 1213.14 273.07 1213.14 281.44 1216.1 281.44 1218.9 287.72 1218.9 293.99 1213.14 293.99 1213.14 306.94 1246.9 306.94 1246.9 307.24 1246.9 273.07"></polygon><polygon class="cls-32" points="1216.1 281.45 1213.14 281.45 1213.14 293.99 1218.9 293.99 1218.9 287.72 1216.1 281.45"></polygon><rect class="cls-45" x="1213.14" y="306.94" width="33.76" height="0.3"></rect><polygon class="cls-2" points="808.03 408.41 808.03 408.41 774.68 408.41 774.68 442.17 808.03 442.17 808.03 408.41"></polygon><path class="cls-4" d="M774.68,340.9h-5.25v33.76h5.25Zm-27,.62L741.33,354v20.62h6.3V341.52"></path><polygon class="cls-5" points="769.43 340.9 741.33 340.9 741.33 354.04 747.63 341.52 747.63 374.66 769.43 374.66 769.43 340.9"></polygon><polygon class="cls-2" points="741.33 408.41 741.33 408.41 707.98 408.41 707.98 442.17 741.33 442.17 741.33 408.41"></polygon><polygon class="cls-23" points="690.09 341.52 690.09 374.66 706.9 374.66 690.09 341.52"></polygon><polygon class="cls-24" points="707.98 340.9 674.64 340.9 674.64 374.66 690.09 374.66 690.09 341.52 706.9 374.66 707.98 374.66 707.98 340.9"></polygon><polygon class="cls-1" points="318.08 316.64 318.08 412.2 298.24 412.2 253.11 342.28 253.11 412.2 230.87 412.2 230.87 298.27 250.72 298.27 295.84 368.04 295.84 316.64 287.74 316.64 287.74 314.95 303.23 314.95 303.23 316.64 318.08 316.64"></polygon><polygon class="cls-1" points="204.31 298.27 204.31 384.46 191.25 384.46 191.25 398.32 185.94 398.32 185.94 401.77 168.98 401.77 168.98 384.46 182.06 384.46 182.06 298.27 204.31 298.27"></polygon><rect class="cls-1" x="321.04" y="286.33" width="10.5" height="13.3"></rect><path class="cls-12" d="M182.07,367.46H155.65v33.76H169V384.46h13.09ZM189,398.32h-3.06v2.9H189Z"></path><polygon class="cls-13" points="189 367.46 182.06 367.46 182.06 384.46 168.97 384.46 168.97 401.22 185.94 401.22 185.94 398.32 189 398.32 189 367.46"></polygon><polygon class="cls-2" points="222.35 367.46 204.31 367.46 204.31 384.46 191.25 384.46 191.25 398.32 189 398.32 189 401.22 222.35 401.22 222.35 367.46"></polygon><polygon class="cls-3" points="204.31 367.46 189 367.46 189 398.32 191.25 398.32 191.25 384.46 204.31 384.46 204.31 367.46"></polygon><path class="cls-12" d="M255.7,367.46h-2.58v33.76h2.58Zm-24.83,0h-8.52v33.76h8.52Z"></path><rect class="cls-13" x="230.87" y="367.46" width="22.24" height="33.76"></rect><polygon class="cls-2" points="255.69 401.22 255.69 401.22 253.12 401.22 253.12 412.21 230.87 412.21 230.87 401.22 222.35 401.22 222.35 434.97 255.69 434.97 255.69 401.22"></polygon><rect class="cls-3" x="230.87" y="401.22" width="22.24" height="10.99"></rect><polygon class="cls-46" points="269.37 367.46 255.69 367.46 255.69 401.22 289.05 401.22 289.05 397.95 269.37 367.46"></polygon><polygon class="cls-47" points="289.05 367.46 269.37 367.46 289.05 397.95 289.05 367.46"></polygon><path class="cls-12" d="M322.39,367.46h-4.31v33.76h4.31Zm-26.55,0h-.37l.37.58v-.58M289.05,398v3.27h2.1l-2.1-3.27"></path><polygon class="cls-13" points="318.08 367.46 295.84 367.46 295.84 368.04 295.47 367.46 289.05 367.46 289.05 397.95 291.15 401.22 318.08 401.22 318.08 367.46"></polygon><polygon class="cls-46" points="322.39 401.22 322.39 401.22 318.08 401.22 318.08 412.21 298.24 412.21 291.15 401.22 289.05 401.22 289.05 434.97 322.39 434.97 322.39 401.22"></polygon><polygon class="cls-47" points="318.08 401.22 291.15 401.22 298.24 412.21 318.08 412.21 318.08 401.22"></polygon><path class="cls-2" d="M322.39,333.71h-4.31v33.75h4.31Zm-26.55,0H289v23.82l6.43,9.93h.37V333.71"></path><path class="cls-3" d="M318.08,333.71H295.84v33.75h22.24Zm-29,23.82v9.93h6.42l-6.42-9.93"></path><rect class="cls-4" x="322.59" y="333.71" width="33.35" height="33.75"></rect><path class="cls-4" d="M289,333.71H273.63L289,357.53Zm-33.35,12.56v21.19h13.68l-13.68-21.19"></path><polygon class="cls-5" points="273.63 333.71 255.69 333.71 255.69 346.27 269.37 367.46 289.05 367.46 289.05 357.53 273.63 333.71"></polygon><path class="cls-48" d="M322.39,300H289.05v15h14.18v1.69h14.85v17.07h4.31Zm-26.55,16.69H289v17.07h6.8Z"></path><polygon class="cls-49" points="303.23 314.95 289.04 314.95 289.04 316.64 295.84 316.64 295.84 333.71 318.08 333.71 318.08 316.64 303.23 316.64 303.23 314.95"></polygon><polygon class="cls-48" points="355.94 266.4 322.6 266.4 322.6 286.33 331.54 286.33 331.54 299.63 322.6 299.63 322.6 300.15 355.94 300.15 355.94 266.4"></polygon><rect class="cls-49" x="322.6" y="286.33" width="8.94" height="13.3"></rect><polygon class="cls-2" points="289.05 299.95 255.69 299.95 255.69 305.97 273.63 333.71 289.05 333.71 289.05 316.64 287.74 316.64 287.74 314.95 289.05 314.95 289.05 299.95"></polygon><path class="cls-3" d="M255.7,306v27.74h17.93Zm33.35,9h-1.31v1.69h1.31Z"></path><rect class="cls-12" x="204.31" y="333.71" width="18.04" height="33.75"></rect><rect class="cls-13" x="189" y="333.71" width="15.31" height="33.75"></rect></svg> 