<?xml version="1.0" encoding="UTF-8"?> <svg xmlns="http://www.w3.org/2000/svg" id="Capa_1" data-name="Capa 1" viewBox="0 0 1024 341"><defs><style>.cls-1{fill:#eee;}.cls-2,.cls-5{font-size:118.79px;}.cls-13,.cls-2,.cls-5,.cls-8{fill:#162831;}.cls-2,.cls-4,.cls-8{font-family:Raleway-Bold, Raleway;font-weight:700;}.cls-2{letter-spacing:-0.01em;}.cls-3{letter-spacing:0em;}.cls-4,.cls-7{font-size:13.52px;fill:#1d1d1b;}.cls-13,.cls-5,.cls-7{font-family:Raleway-Light, Raleway;}.cls-6{letter-spacing:-0.01em;}.cls-8{font-size:15px;}.cls-9{letter-spacing:-0.01em;}.cls-10{letter-spacing:-0.01em;}.cls-11{letter-spacing:-0.01em;}.cls-12{letter-spacing:-0.03em;}.cls-13{font-size:12px;}.cls-14{letter-spacing:-0.03em;}.cls-15{letter-spacing:-0.01em;}.cls-16{letter-spacing:-0.02em;}.cls-17{letter-spacing:-0.01em;}.cls-18{letter-spacing:0em;}.cls-19{letter-spacing:-0.01em;}.cls-20{letter-spacing:0em;}.cls-21{letter-spacing:-0.03em;}.cls-22{letter-spacing:0em;}.cls-23{letter-spacing:-0.02em;}.cls-24{font-size:8px;}.cls-25{letter-spacing:-0.25em;}.cls-26{letter-spacing:-0.03em;}.cls-27{letter-spacing:-0.03em;}.cls-28{letter-spacing:-0.01em;}.cls-29{letter-spacing:-0.01em;}.cls-30{letter-spacing:-0.01em;}.cls-31{letter-spacing:-0.03em;}</style></defs><title>02_TIPO</title><rect class="cls-1" y="-1" width="1024" height="342"></rect><text class="cls-2" transform="translate(103.87 205.01)">A<tspan class="cls-3" x="78.04" y="0">g</tspan></text><text class="cls-4" transform="translate(179.73 63.54) rotate(2.24)">A</text><text class="cls-4" transform="translate(188.39 63.94) rotate(5.17)"> </text><text class="cls-4" transform="translate(191.64 64.15) rotate(8.35)">B</text><text class="cls-4" transform="translate(200.74 65.57) rotate(11.55)"> </text><text class="cls-4" transform="matrix(0.97, 0.26, -0.26, 0.97, 203.94, 66.14)">C</text><text class="cls-4" transform="translate(212.87 68.58) rotate(18.01)"> </text><text class="cls-4" transform="translate(215.99 69.5) rotate(21.34)">D</text><text class="cls-4" transform="matrix(0.91, 0.42, -0.42, 0.91, 224.97, 73.11)"> </text><text class="cls-4" transform="matrix(0.89, 0.46, -0.46, 0.89, 227.94, 74.41)">E</text><text class="cls-4" transform="translate(235.13 78.23) rotate(30.53)"> </text><text class="cls-4" transform="translate(237.97 79.84) rotate(33.35)">F</text><text class="cls-4" transform="matrix(0.81, 0.59, -0.59, 0.81, 244.18, 83.99)"> </text><text class="cls-4" transform="matrix(0.77, 0.63, -0.63, 0.77, 246.87, 85.83)">G</text><text class="cls-4" transform="translate(254.39 92.11) rotate(42.67)"> </text><text class="cls-4" transform="matrix(0.69, 0.72, -0.72, 0.69, 256.83, 94.23)">H</text><text class="cls-4" transform="translate(263.74 101.54) rotate(49.44)"> </text><text class="cls-4" transform="matrix(0.63, 0.78, -0.78, 0.63, 265.89, 104.05)">I</text><text class="cls-4" transform="matrix(0.6, 0.8, -0.8, 0.6, 268.34, 107.11)"> </text><text class="cls-4" transform="translate(270.13 109.43) rotate(55.48)">J</text><text class="cls-4" transform="matrix(0.53, 0.85, -0.85, 0.53, 273.87, 114.94)"> </text><text class="cls-4" transform="matrix(0.48, 0.88, -0.88, 0.48, 275.67, 117.66)">K</text><text class="cls-4" transform="translate(279.87 125.47) rotate(64.25)"> </text><text class="cls-4" transform="translate(281.35 128.4) rotate(67.14)">L</text><text class="cls-4" transform="translate(284.23 135.35) rotate(69.82)"> </text><text class="cls-4" transform="translate(285.49 138.35) rotate(73.68)">M</text><text class="cls-4" transform="translate(288.63 149.58) rotate(77.52)"> </text><text class="cls-4" transform="translate(289.43 152.71) rotate(81)">N</text><text class="cls-4" transform="translate(290.94 162.92) rotate(84.47)"> </text><text class="cls-4" transform="translate(291.36 166.12) rotate(87.88)">O</text><text class="cls-4" transform="translate(291.63 176.32) rotate(91.26)"> </text><text class="cls-4" transform="translate(291.63 179.58) rotate(94.22)">P</text><text class="cls-4" transform="translate(290.98 187.63) rotate(97.02)"> </text><text class="cls-4" transform="matrix(-0.18, 0.98, -0.98, -0.18, 290.69, 190.86)">Q</text><text class="cls-4" transform="translate(288.73 200.87) rotate(103.93)"> </text><text class="cls-4" transform="matrix(-0.29, 0.96, -0.96, -0.29, 288.02, 204.04)">R</text><text class="cls-4" transform="translate(285.31 212.6) rotate(110.24)"> </text><text class="cls-4" transform="translate(284.24 215.7) rotate(113.23)">S</text><text class="cls-4" transform="translate(280.91 223.3) rotate(116.21)"> </text><text class="cls-4" transform="matrix(-0.48, 0.87, -0.87, -0.48, 279.7, 225.91)">T</text><text class="cls-4" transform="translate(275.77 232.88) rotate(121.79)"> </text><text class="cls-4" transform="matrix(-0.58, 0.82, -0.82, -0.58, 274.16, 235.68)">U</text><text class="cls-4" transform="translate(268.23 243.91) rotate(128.62)"> </text><text class="cls-4" transform="matrix(-0.66, 0.75, -0.75, -0.66, 266.56, 246.14)">V</text><text class="cls-4" transform="translate(260.75 252.6) rotate(134.47)"> </text><text class="cls-4" transform="matrix(-0.75, 0.66, -0.66, -0.75, 258.96, 254.74)">W</text><text class="cls-4" transform="translate(248.54 263.66) rotate(142.87)"> </text><text class="cls-4" transform="translate(246.11 265.59) rotate(145.85)">X</text><text class="cls-4" transform="translate(238.98 270.35) rotate(148.83)"> </text><text class="cls-4" transform="matrix(-0.88, 0.47, -0.47, -0.88, 236.63, 271.87)">Y</text><text class="cls-4" transform="matrix(-0.9, 0.43, -0.43, -0.9, 229.14, 275.82)"> </text><text class="cls-4" transform="matrix(-0.92, 0.38, -0.38, -0.92, 226.23, 277.28)">Z</text><text class="cls-4" transform="translate(218.34 280.45) rotate(160.69)"> </text><text class="cls-4" transform="translate(215.3 281.57) rotate(163.52)">a</text><text class="cls-4" transform="matrix(-0.97, 0.24, -0.24, -0.97, 207.82, 283.73)"> </text><text class="cls-4" transform="translate(204.67 284.56) rotate(169.42)">b</text><text class="cls-4" transform="translate(196.23 286.07) rotate(172.46)"> </text><text class="cls-4" transform="translate(193.01 286.55) rotate(175.24)">c</text><text class="cls-4" transform="translate(185.37 287.13) rotate(178.02)"> </text><text class="cls-4" transform="matrix(-1, -0.02, 0.02, -1, 182.14, 287.31)">d</text><text class="cls-4" transform="matrix(-1, -0.07, 0.07, -1, 173.4, 287.08)"> </text><text class="cls-4" transform="translate(170.16 286.91) rotate(-173.05)">e</text><text class="cls-4" transform="translate(162.11 285.87) rotate(-170.13)"> </text><text class="cls-4" transform="translate(158.87 285.32) rotate(-167.99)">f</text><text class="cls-4" transform="matrix(-0.97, -0.24, 0.24, -0.97, 154.2, 284.32)"> </text><text class="cls-4" transform="matrix(-0.96, -0.29, 0.29, -0.96, 151.03, 283.6)">g</text><text class="cls-4" transform="translate(142.85 281.01) rotate(-159.87)"> </text><text class="cls-4" transform="translate(139.77 279.95) rotate(-156.92)">h</text><text class="cls-4" transform="translate(132.26 276.68) rotate(-153.97)"> </text><text class="cls-4" transform="translate(129.31 275.24) rotate(-152.23)">i</text><text class="cls-4" transform="matrix(-0.87, -0.49, 0.49, -0.87, 126.19, 273.59)"> </text><text class="cls-4" transform="matrix(-0.85, -0.52, 0.52, -0.85, 123.32, 271.97)">j</text><text class="cls-4" transform="translate(120.27 270.11) rotate(-146.95)"> </text><text class="cls-4" transform="matrix(-0.81, -0.59, 0.59, -0.81, 117.49, 268.37)">k</text><text class="cls-4" transform="matrix(-0.78, -0.62, 0.62, -0.78, 111.39, 263.89)"> </text><text class="cls-4" transform="translate(108.81 261.84) rotate(-139.46)">l</text><text class="cls-4" transform="translate(105.83 259.3) rotate(-137.73)"> </text><text class="cls-4" transform="matrix(-0.69, -0.72, 0.72, -0.69, 103.34, 257.25)">m</text><text class="cls-4" transform="translate(94.78 248.07) rotate(-129.7)"> </text><text class="cls-4" transform="matrix(-0.6, -0.8, 0.8, -0.6, 92.66, 245.61)">n</text><text class="cls-4" transform="matrix(-0.56, -0.83, 0.83, -0.56, 87.81, 239.02)"> </text><text class="cls-4" transform="matrix(-0.51, -0.86, 0.86, -0.51, 85.94, 236.35)">o</text><text class="cls-4" transform="translate(81.78 229.27) rotate(-117.99)"> </text><text class="cls-4" transform="translate(80.18 226.42) rotate(-114.94)">p</text><text class="cls-4" transform="translate(76.63 218.62) rotate(-111.89)"> </text><text class="cls-4" transform="translate(75.36 215.64) rotate(-108.85)">q</text><text class="cls-4" transform="matrix(-0.27, -0.96, 0.96, -0.27, 72.65, 207.49)"> </text><text class="cls-4" transform="translate(71.74 204.33) rotate(-103.58)">r</text><text class="cls-4" transform="translate(70.59 199.52) rotate(-101.54)"> </text><text class="cls-4" transform="translate(69.89 196.31) rotate(-98.96)">s</text><text class="cls-4" transform="translate(68.88 189.65) rotate(-96.4)"> </text><text class="cls-4" transform="translate(68.5 186.39) rotate(-94.23)">t</text><text class="cls-4" transform="matrix(-0.04, -1, 1, -0.04, 68.13, 181.16)"> </text><text class="cls-4" transform="matrix(0.02, -1, 1, 0.02, 67.95, 177.9)">u</text><text class="cls-4" transform="matrix(0.07, -1, 1, 0.07, 68.14, 169.54)"> </text><text class="cls-4" transform="translate(68.28 166.64) rotate(-83.66)">v</text><text class="cls-4" transform="translate(69.1 159.6) rotate(-81.1)"> </text><text class="cls-4" transform="translate(69.41 156.74) rotate(-77.54)">w</text><text class="cls-4" transform="translate(71.89 146.06) rotate(-73.97)"> </text><text class="cls-4" transform="translate(72.74 142.92) rotate(-71.27)">x</text><text class="cls-4" transform="translate(75.1 136.11) rotate(-68.57)"> </text><text class="cls-4" transform="matrix(0.41, -0.91, 0.91, 0.41, 76.1, 133.4)">y</text><text class="cls-4" transform="translate(79.03 126.93) rotate(-63.42)"> </text><text class="cls-4" transform="translate(80.46 123.98) rotate(-60.86)">z</text><text class="cls-4" transform="matrix(0.53, -0.85, 0.85, 0.53, 83.75, 118.16)"> </text><text class="cls-4" transform="translate(85.44 115.35) rotate(-55.75)">1</text><text class="cls-4" transform="matrix(0.6, -0.8, 0.8, 0.6, 89.24, 109.84)"> </text><text class="cls-4" transform="matrix(0.64, -0.77, 0.77, 0.64, 91.16, 107.19)">2</text><text class="cls-4" transform="translate(96.07 101.33) rotate(-47.65)"> </text><text class="cls-4" transform="translate(98.23 98.89) rotate(-44.89)">3</text><text class="cls-4" transform="translate(103.62 93.59) rotate(-42.14)"> </text><text class="cls-4" transform="translate(106 91.37) rotate(-39.34)">4</text><text class="cls-4" transform="translate(112.01 86.51) rotate(-36.53)"> </text><text class="cls-4" transform="matrix(0.83, -0.56, 0.56, 0.83, 114.62, 84.51)">5</text><text class="cls-4" transform="matrix(0.86, -0.52, 0.52, 0.86, 120.88, 80.39)"> </text><text class="cls-4" transform="matrix(0.88, -0.47, 0.47, 0.88, 123.64, 78.65)">6</text><text class="cls-4" transform="matrix(0.91, -0.42, 0.42, 0.91, 130.94, 74.83)"> </text><text class="cls-4" transform="translate(133.86 73.4) rotate(-22.32)">7</text><text class="cls-4" transform="translate(140.92 70.56) rotate(-19.51)"> </text><text class="cls-4" transform="translate(143.97 69.42) rotate(-16.57)">8</text><text class="cls-4" transform="translate(151.8 67.15) rotate(-13.62)"> </text><text class="cls-4" transform="translate(154.97 66.32) rotate(-10.72)">9</text><text class="cls-4" transform="translate(162.81 64.9) rotate(-7.84)"> </text><text class="cls-4" transform="translate(166.03 64.39) rotate(-4.88)">0</text><text class="cls-5" transform="translate(763.25 205.01)"><tspan class="cls-6">A</tspan><tspan x="78.4" y="0">g</tspan></text><text class="cls-7" transform="translate(839.11 63.54) rotate(2.26)">A</text><text class="cls-7" transform="translate(847.83 63.94) rotate(5.26)"> </text><text class="cls-7" transform="matrix(0.99, 0.15, -0.15, 0.99, 851.29, 64.19)">B</text><text class="cls-7" transform="matrix(0.98, 0.2, -0.2, 0.98, 860.13, 65.57)"> </text><text class="cls-7" transform="translate(863.55 66.19) rotate(14.92)">C</text><text class="cls-7" transform="matrix(0.95, 0.31, -0.31, 0.95, 872.55, 68.67)"> </text><text class="cls-7" transform="translate(875.87 69.67) rotate(21.61)">D</text><text class="cls-7" transform="translate(884.79 73.3) rotate(24.98)"> </text><text class="cls-7" transform="translate(887.98 74.72) rotate(28.01)">E</text><text class="cls-7" transform="matrix(0.86, 0.52, -0.52, 0.86, 895.25, 78.66)"> </text><text class="cls-7" transform="translate(898.27 80.41) rotate(33.98)">F</text><text class="cls-7" transform="translate(904.66 84.78) rotate(36.77)"> </text><text class="cls-7" transform="translate(907.51 86.79) rotate(40.13)">G</text><text class="cls-7" transform="matrix(0.73, 0.69, -0.69, 0.73, 914.86, 93.11)"> </text><text class="cls-7" transform="matrix(0.68, 0.73, -0.73, 0.68, 917.44, 95.42)">H</text><text class="cls-7" transform="translate(924.14 102.72) rotate(50.3)"> </text><text class="cls-7" transform="translate(926.4 105.44) rotate(52.03)">I</text><text class="cls-7" transform="translate(928.41 108.02) rotate(53.77)"> </text><text class="cls-7" transform="translate(930.3 110.54) rotate(56.14)">J</text><text class="cls-7" transform="translate(933.89 115.94) rotate(58.7)"> </text><text class="cls-7" transform="translate(935.76 118.88) rotate(61.79)">K</text><text class="cls-7" transform="translate(939.69 126.35) rotate(64.82)"> </text><text class="cls-7" transform="translate(941.22 129.46) rotate(67.73)">L</text><text class="cls-7" transform="translate(944.03 136.45) rotate(70.49)"> </text><text class="cls-7" transform="translate(945.31 139.64) rotate(74.43)">M</text><text class="cls-7" transform="translate(948.36 151.12) rotate(78.39)"> </text><text class="cls-7" transform="translate(949.16 154.48) rotate(81.95)">N</text><text class="cls-7" transform="translate(950.52 164.84) rotate(85.51)"> </text><text class="cls-7" transform="matrix(0.02, 1, -1, 0.02, 950.89, 168.28)">O</text><text class="cls-7" transform="matrix(-0.04, 1, -1, -0.04, 950.97, 178.43)"> </text><text class="cls-7" transform="matrix(-0.09, 1, -1, -0.09, 950.89, 181.92)">P</text><text class="cls-7" transform="translate(950.08 189.92) rotate(98.26)"> </text><text class="cls-7" transform="translate(949.69 193.38) rotate(101.77)">Q</text><text class="cls-7" transform="translate(947.52 203.29) rotate(105.28)"> </text><text class="cls-7" transform="translate(946.67 206.67) rotate(108.44)">R</text><text class="cls-7" transform="translate(943.82 214.98) rotate(111.61)"> </text><text class="cls-7" transform="translate(942.6 218.24) rotate(114.61)">S</text><text class="cls-7" transform="translate(939.13 225.65) rotate(117.61)"> </text><text class="cls-7" transform="matrix(-0.51, 0.86, -0.86, -0.51, 937.75, 228.44)">T</text><text class="cls-7" transform="matrix(-0.55, 0.84, -0.84, -0.55, 933.74, 235.17)"> </text><text class="cls-7" transform="matrix(-0.6, 0.8, -0.8, -0.6, 931.93, 238.13)">U</text><text class="cls-7" transform="matrix(-0.65, 0.76, -0.76, -0.65, 925.74, 246.25)"> </text><text class="cls-7" transform="translate(923.86 248.61) rotate(133.2)">V</text><text class="cls-7" transform="translate(917.83 254.94) rotate(136.2)"> </text><text class="cls-7" transform="translate(915.84 257.15) rotate(140.4)">W</text><text class="cls-7" transform="matrix(-0.82, 0.58, -0.58, -0.82, 905.25, 265.68)"> </text><text class="cls-7" transform="matrix(-0.84, 0.54, -0.54, -0.84, 902.58, 267.66)">X</text><text class="cls-7" transform="translate(895.51 272.07) rotate(150.6)"> </text><text class="cls-7" transform="translate(892.91 273.62) rotate(153.51)">Y</text><text class="cls-7" transform="matrix(-0.92, 0.4, -0.4, -0.92, 885.44, 277.28)"> </text><text class="cls-7" transform="translate(882.28 278.73) rotate(159.51)">Z</text><text class="cls-7" transform="translate(874.3 281.64) rotate(162.61)"> </text><text class="cls-7" transform="translate(871 282.72) rotate(165.38)">a</text><text class="cls-7" transform="matrix(-0.98, 0.21, -0.21, -0.98, 863.93, 284.52)"> </text><text class="cls-7" transform="matrix(-0.99, 0.15, -0.15, -0.99, 860.54, 285.29)">b</text><text class="cls-7" transform="matrix(-0.99, 0.1, -0.1, -0.99, 852.35, 286.5)"> </text><text class="cls-7" transform="translate(848.89 286.9) rotate(176.96)">c</text><text class="cls-7" transform="matrix(-1, 0.02, -0.02, -1, 841.47, 287.22)"> </text><text class="cls-7" transform="translate(838.01 287.32) rotate(-177.31)">d</text><text class="cls-7" transform="translate(829.7 286.87) rotate(-174.31)"> </text><text class="cls-7" transform="translate(826.23 286.58) rotate(-171.4)">e</text><text class="cls-7" transform="translate(818.44 285.35) rotate(-168.48)"> </text><text class="cls-7" transform="matrix(-0.97, -0.23, 0.23, -0.97, 814.97, 284.64)">f</text><text class="cls-7" transform="translate(811.02 283.69) rotate(-164.56)"> </text><text class="cls-7" transform="translate(807.66 282.82) rotate(-161.53)">g</text><text class="cls-7" transform="translate(799.81 280.13) rotate(-158.48)"> </text><text class="cls-7" transform="translate(796.56 278.91) rotate(-155.58)">h</text><text class="cls-7" transform="translate(789.47 275.63) rotate(-152.67)"> </text><text class="cls-7" transform="matrix(-0.87, -0.48, 0.48, -0.87, 786.34, 274.01)">i</text><text class="cls-7" transform="matrix(-0.86, -0.51, 0.51, -0.86, 783.83, 272.62)"> </text><text class="cls-7" transform="translate(780.79 270.82) rotate(-147.72)">j</text><text class="cls-7" transform="matrix(-0.83, -0.56, 0.56, -0.83, 778.29, 269.24)"> </text><text class="cls-7" transform="translate(775.36 267.32) rotate(-143.36)">k</text><text class="cls-7" transform="translate(769.7 263.06) rotate(-140.66)"> </text><text class="cls-7" transform="matrix(-0.75, -0.66, 0.66, -0.75, 766.97, 260.82)">l</text><text class="cls-7" transform="translate(764.6 258.76) rotate(-137.26)"> </text><text class="cls-7" transform="matrix(-0.69, -0.73, 0.73, -0.69, 761.95, 256.53)">m</text><text class="cls-7" transform="translate(753.62 247.44) rotate(-129.22)"> </text><text class="cls-7" transform="translate(751.37 244.77) rotate(-126.34)">n</text><text class="cls-7" transform="translate(746.8 238.46) rotate(-123.46)"> </text><text class="cls-7" transform="matrix(-0.51, -0.86, 0.86, -0.51, 744.82, 235.56)">o</text><text class="cls-7" transform="translate(740.8 228.63) rotate(-117.56)"> </text><text class="cls-7" transform="translate(739.13 225.56) rotate(-114.52)">p</text><text class="cls-7" transform="matrix(-0.37, -0.93, 0.93, -0.37, 735.75, 218.01)"> </text><text class="cls-7" transform="translate(734.42 214.8) rotate(-108.46)">q</text><text class="cls-7" transform="translate(731.86 206.93) rotate(-105.43)"> </text><text class="cls-7" transform="translate(730.91 203.52) rotate(-103.31)">r</text><text class="cls-7" transform="translate(729.92 199.31) rotate(-101.37)"> </text><text class="cls-7" transform="matrix(-0.15, -0.99, 0.99, -0.15, 729.2, 195.9)">s</text><text class="cls-7" transform="translate(728.23 189.43) rotate(-96.23)"> </text><text class="cls-7" transform="translate(727.84 185.93) rotate(-94.22)">t</text><text class="cls-7" transform="translate(727.53 181.56) rotate(-92.21)"> </text><text class="cls-7" transform="matrix(0.02, -1, 1, 0.02, 727.32, 178.1)">u</text><text class="cls-7" transform="matrix(0.06, -1, 1, 0.06, 727.49, 170.13)"> </text><text class="cls-7" transform="translate(727.64 166.98) rotate(-83.91)">v</text><text class="cls-7" transform="translate(728.39 160.24) rotate(-81.37)"> </text><text class="cls-7" transform="translate(728.73 157.15) rotate(-77.86)">w</text><text class="cls-7" transform="translate(731.04 146.88) rotate(-74.35)"> </text><text class="cls-7" transform="translate(731.95 143.51) rotate(-71.71)">x</text><text class="cls-7" transform="matrix(0.36, -0.93, 0.93, 0.36, 734.1, 137.14)"> </text><text class="cls-7" transform="translate(735.16 134.21) rotate(-66.48)">y</text><text class="cls-7" transform="translate(737.97 127.84) rotate(-63.88)"> </text><text class="cls-7" transform="matrix(0.48, -0.88, 0.88, 0.48, 739.48, 124.68)">z</text><text class="cls-7" transform="translate(742.72 118.85) rotate(-58.66)"> </text><text class="cls-7" transform="matrix(0.55, -0.83, 0.83, 0.55, 744.52, 115.85)">1</text><text class="cls-7" transform="translate(747.62 111.23) rotate(-54.02)"> </text><text class="cls-7" transform="translate(749.64 108.38) rotate(-51.38)">2</text><text class="cls-7" transform="translate(753.96 103.04) rotate(-48.74)"> </text><text class="cls-7" transform="matrix(0.69, -0.72, 0.72, 0.69, 756.25, 100.37)">3</text><text class="cls-7" transform="translate(761.27 95.23) rotate(-43.29)"> </text><text class="cls-7" transform="matrix(0.76, -0.65, 0.65, 0.76, 763.77, 92.81)">4</text><text class="cls-7" transform="translate(769.31 88.13) rotate(-37.82)"> </text><text class="cls-7" transform="matrix(0.82, -0.57, 0.57, 0.82, 772.05, 85.95)">5</text><text class="cls-7" transform="translate(778.09 81.76) rotate(-32.28)"> </text><text class="cls-7" transform="matrix(0.87, -0.49, 0.49, 0.87, 781.02, 79.84)">6</text><text class="cls-7" transform="matrix(0.9, -0.44, 0.44, 0.9, 788.13, 75.93)"> </text><text class="cls-7" transform="translate(791.24 74.34) rotate(-23.55)">7</text><text class="cls-7" transform="translate(797.9 71.48) rotate(-20.78)"> </text><text class="cls-7" transform="matrix(0.95, -0.31, 0.31, 0.95, 801.13, 70.2)">8</text><text class="cls-7" transform="translate(808.73 67.81) rotate(-14.87)"> </text><text class="cls-7" transform="translate(812.12 66.86) rotate(-11.92)">9</text><text class="cls-7" transform="translate(819.84 65.28) rotate(-9)"> </text><text class="cls-7" transform="matrix(0.99, -0.1, 0.1, 0.99, 823.25, 64.68)">0</text><text class="cls-8" transform="translate(481.36 121.97)"><tspan class="cls-9">R</tspan><tspan x="9.87" y="0">al</tspan><tspan class="cls-10" x="23.23" y="0">e</tspan><tspan class="cls-11" x="32.01" y="0">wa</tspan><tspan class="cls-12" x="52.81" y="0">y</tspan></text><text class="cls-13" transform="translate(435.79 142.97)">Disponible en Google <tspan class="cls-14" x="121.52" y="0">F</tspan><tspan x="128.24" y="0">o</tspan><tspan class="cls-15" x="135.35" y="0">n</tspan><tspan x="142.2" y="0">ts</tspan><tspan x="7.01" y="14.4">puede usarse en páginas</tspan><tspan class="cls-16" x="32.51" y="28.8">w</tspan><tspan x="41.95" y="28.8">eb </tspan><tspan class="cls-17" x="59.38" y="28.8">f</tspan><tspan x="63.1" y="28.8">ácilme</tspan><tspan class="cls-18" x="99.65" y="28.8">n</tspan><tspan class="cls-19" x="106.5" y="28.8">t</tspan><tspan class="cls-20" x="110.18" y="28.8">e.</tspan><tspan x="23.19" y="57.6">C</tspan><tspan class="cls-21" x="31.47" y="57.6">r</tspan><tspan class="cls-20" x="35.25" y="57.6">e</tspan><tspan class="cls-22" x="42.25" y="57.6">a</tspan><tspan x="48.64" y="57.6">ti</tspan><tspan class="cls-23" x="54.96" y="57.6">v</tspan><tspan x="61.08" y="57.6">e </tspan><tspan class="cls-18" x="71.16" y="57.6">c</tspan><tspan class="cls-20" x="77.65" y="57.6">ommons.</tspan><tspan class="cls-24"><tspan x="-7.86" y="81.6">.</tspan><tspan class="cls-15" x="-6.44" y="81.6">h</tspan><tspan x="-1.87" y="81.6">ttps:</tspan><tspan class="cls-25" x="13.41" y="81.6">/</tspan><tspan x="16.06" y="81.6">/</tspan><tspan class="cls-26" x="20.69" y="81.6">f</tspan><tspan x="23.03" y="81.6">o</tspan><tspan class="cls-15" x="27.77" y="81.6">n</tspan><tspan x="32.33" y="81.6">ts.google.</tspan><tspan class="cls-15" x="67.57" y="81.6">c</tspan><tspan x="71.89" y="81.6">om</tspan><tspan class="cls-27" x="83.95" y="81.6">/</tspan><tspan x="88.32" y="81.6">specimen/</tspan><tspan class="cls-28" x="128.97" y="81.6">R</tspan><tspan x="134.11" y="81.6">al</tspan><tspan class="cls-29" x="140.48" y="81.6">e</tspan><tspan class="cls-30" x="145.03" y="81.6">wa</tspan><tspan class="cls-31" x="155.56" y="81.6">y</tspan></tspan></text></svg> 