<?xml version="1.0" encoding="UTF-8"?> <svg xmlns="http://www.w3.org/2000/svg" id="Capa_1" data-name="Capa 1" viewBox="0 0 1024 684"><defs><style>.cls-1{fill:#eee;}.cls-2{fill:#e73a3f;}.cls-3{fill:#294756;}.cls-4{fill:#162831;}.cls-5{fill:#fff;}</style></defs><title>03_LOGO</title><rect class="cls-1" x="-0.33" width="512.16" height="341.96"></rect><rect class="cls-2" x="511.83" width="512.16" height="341.96"></rect><rect class="cls-3" x="-0.33" y="341.96" width="512.16" height="341.96"></rect><rect class="cls-4" x="511.83" y="341.96" width="512.16" height="341.96"></rect><rect class="cls-3" x="327.4" y="144.81" width="13.15" height="11.93" rx="2.48" ry="2.48"></rect><path class="cls-3" d="M232.94,161.36c-13.16,0-22.55,10.73-22.55,23.21,0,12.71,9.39,23.2,22.66,23.2a23.83,23.83,0,0,0,16.46-6.07,1.81,1.81,0,0,0,.1-2.87l-4.53-5.2c-.77-.89-1.77-.66-2.86,0a15.36,15.36,0,0,1-8.62,2.76A10.54,10.54,0,0,1,223,186.78h28.28a2.15,2.15,0,0,0,2.11-1.87,27.66,27.66,0,0,0,.21-3A20.26,20.26,0,0,0,232.94,161.36Zm-9,17.69a8.7,8.7,0,0,1,8.62-7.52,8.27,8.27,0,0,1,8.07,7.52Z"></path><path class="cls-3" d="M285.19,161.36c-6.85,0-10.94,4.64-12.48,6.86l-1.55-4.31a2,2,0,0,0-2-1.44H265a2.09,2.09,0,0,0-2.09,2.1v40a2.16,2.16,0,0,0,2.09,2.09h8.51c1.55,0,2.54-.55,2.54-2.09V177.84a8.93,8.93,0,0,1,7.85-4.54,12.48,12.48,0,0,1,3.2.66,2,2,0,0,0,2.55-1l4.09-7.18C295,163,290.39,161.36,285.19,161.36Z"></path><path class="cls-3" d="M311.93,139.69h-9.28a2.18,2.18,0,0,0-2.1,2.11v62.78a2.17,2.17,0,0,0,2.1,2.09h9.28a2.16,2.16,0,0,0,2.09-2.09V141.8A2.17,2.17,0,0,0,311.93,139.69Z"></path><path class="cls-3" d="M338.55,162.47h-9.16a2.11,2.11,0,0,0-2.1,2.1v40a2.18,2.18,0,0,0,2.1,2.09h9.16a2.18,2.18,0,0,0,2.11-2.09v-40A2.11,2.11,0,0,0,338.55,162.47Z"></path><path class="cls-3" d="M397.12,184v19.45a3,3,0,0,1-3,3h-6.5a3,3,0,0,1-3-3V182.63a9,9,0,0,0-18.08,0V184h0v19.45a3,3,0,0,1-3,3H357a3,3,0,0,1-3-3V184h0a21.56,21.56,0,0,1,43.12,0Z"></path><rect class="cls-2" x="114.38" y="193.52" width="13.15" height="13.15" rx="2.48" ry="2.48"></rect><path class="cls-3" d="M201.34,183.93v19.72a2.86,2.86,0,0,1-2.85,2.85h-6.86a2.86,2.86,0,0,1-2.85-2.85V183.93h0v-1.08a9.23,9.23,0,0,0-7.86-9.27,9,9,0,0,0-10.22,8.95v1.4h0v19.72a2.85,2.85,0,0,1-2.85,2.85h-6.84a2.85,2.85,0,0,1-2.85-2.85V183.93h0v-1.4a9,9,0,0,0-18.08,0v1.4h0v6.74a2.86,2.86,0,0,1-2.85,2.85h-6.84a2.86,2.86,0,0,1-2.86-2.85v-6.75a21.55,21.55,0,0,1,21.56-21.55c6,0,12.31,3.18,15.29,7.51,2.86-4.23,9.3-7.51,15.27-7.51a21.55,21.55,0,0,1,21.56,21.55h0Z"></path><rect class="cls-5" x="839.56" y="144.81" width="13.15" height="11.93" rx="2.48" ry="2.48"></rect><path class="cls-5" d="M745.1,161.36c-13.15,0-22.54,10.73-22.54,23.21,0,12.71,9.39,23.2,22.65,23.2a23.79,23.79,0,0,0,16.46-6.07,1.81,1.81,0,0,0,.11-2.87l-4.54-5.2c-.77-.89-1.76-.66-2.86,0a15.34,15.34,0,0,1-8.62,2.76,10.52,10.52,0,0,1-10.6-9.61h28.28a2.14,2.14,0,0,0,2.1-1.87,27.7,27.7,0,0,0,.22-3A20.27,20.27,0,0,0,745.1,161.36Zm-9,17.69a8.71,8.71,0,0,1,8.62-7.52,8.27,8.27,0,0,1,8.07,7.52Z"></path><path class="cls-5" d="M797.36,161.36c-6.86,0-11,4.64-12.48,6.86l-1.56-4.31a2,2,0,0,0-2-1.44h-4.21a2.09,2.09,0,0,0-2.09,2.1v40a2.16,2.16,0,0,0,2.09,2.09h8.51c1.56,0,2.54-.55,2.54-2.09V177.84A9,9,0,0,1,796,173.3a12.28,12.28,0,0,1,3.2.66,2,2,0,0,0,2.55-1l4.09-7.18C807.19,163,802.55,161.36,797.36,161.36Z"></path><path class="cls-5" d="M824.1,139.69h-9.29a2.18,2.18,0,0,0-2.1,2.11v62.78a2.18,2.18,0,0,0,2.1,2.09h9.29a2.17,2.17,0,0,0,2.09-2.09V141.8A2.17,2.17,0,0,0,824.1,139.69Z"></path><path class="cls-5" d="M850.72,162.47h-9.16a2.11,2.11,0,0,0-2.11,2.1v40a2.18,2.18,0,0,0,2.11,2.09h9.16a2.18,2.18,0,0,0,2.1-2.09v-40A2.11,2.11,0,0,0,850.72,162.47Z"></path><path class="cls-5" d="M909.29,184v19.45a3,3,0,0,1-3,3h-6.49a3,3,0,0,1-3-3V182.63a9,9,0,0,0-18.08,0V184h0v19.45a3,3,0,0,1-3,3h-6.5a3,3,0,0,1-3-3V184h0a21.56,21.56,0,0,1,43.12,0Z"></path><rect class="cls-5" x="626.54" y="193.52" width="13.15" height="13.15" rx="2.48" ry="2.48"></rect><path class="cls-5" d="M713.5,183.93v19.72a2.85,2.85,0,0,1-2.85,2.85h-6.86a2.86,2.86,0,0,1-2.85-2.85V183.93h0v-1.08a9.24,9.24,0,0,0-7.87-9.27,9,9,0,0,0-10.21,8.95v1.4h0v19.72a2.86,2.86,0,0,1-2.86,2.85h-6.84a2.86,2.86,0,0,1-2.85-2.85V183.93h0v-1.4a9,9,0,0,0-18.08,0v1.4h0v6.74a2.85,2.85,0,0,1-2.85,2.85h-6.84a2.85,2.85,0,0,1-2.85-2.85v-6.75a21.55,21.55,0,0,1,21.56-21.55c6,0,12.3,3.18,15.28,7.51,2.86-4.23,9.3-7.51,15.28-7.51a21.55,21.55,0,0,1,21.56,21.55h0Z"></path><rect class="cls-5" x="327.4" y="481.56" width="13.15" height="11.93" rx="2.48" ry="2.48"></rect><path class="cls-5" d="M232.94,498.11c-13.16,0-22.55,10.72-22.55,23.2,0,12.71,9.39,23.21,22.66,23.21a23.88,23.88,0,0,0,16.46-6.07,1.81,1.81,0,0,0,.1-2.87l-4.53-5.2c-.77-.89-1.77-.66-2.86,0a15.44,15.44,0,0,1-8.62,2.75,10.53,10.53,0,0,1-10.61-9.6h28.28a2.15,2.15,0,0,0,2.11-1.88,27.31,27.31,0,0,0,.21-3A20.26,20.26,0,0,0,232.94,498.11Zm-9,17.69a8.7,8.7,0,0,1,8.62-7.52,8.27,8.27,0,0,1,8.07,7.52Z"></path><path class="cls-5" d="M285.19,498.11c-6.85,0-10.94,4.64-12.48,6.85l-1.55-4.3a2,2,0,0,0-2-1.45H265a2.1,2.1,0,0,0-2.09,2.11v40a2.16,2.16,0,0,0,2.09,2.09h8.51c1.55,0,2.54-.55,2.54-2.09V514.58a9,9,0,0,1,7.85-4.53,12.06,12.06,0,0,1,3.2.66,2,2,0,0,0,2.55-1l4.09-7.18C295,499.77,290.39,498.11,285.19,498.11Z"></path><path class="cls-5" d="M311.93,476.44h-9.28a2.18,2.18,0,0,0-2.1,2.11v62.77a2.17,2.17,0,0,0,2.1,2.09h9.28a2.16,2.16,0,0,0,2.09-2.09V478.55A2.17,2.17,0,0,0,311.93,476.44Z"></path><path class="cls-5" d="M338.55,499.21h-9.16a2.11,2.11,0,0,0-2.1,2.11v40a2.17,2.17,0,0,0,2.1,2.09h9.16a2.17,2.17,0,0,0,2.11-2.09v-40A2.12,2.12,0,0,0,338.55,499.21Z"></path><path class="cls-5" d="M397.12,520.76v19.46a3,3,0,0,1-3,3h-6.5a3,3,0,0,1-3-3V519.37a9,9,0,0,0-18.08,0v1.39h0v19.46a3,3,0,0,1-3,3H357a3,3,0,0,1-3-3V520.78h0v0a21.56,21.56,0,0,1,43.12,0Z"></path><rect class="cls-2" x="114.38" y="530.27" width="13.15" height="13.15" rx="2.48" ry="2.48"></rect><path class="cls-5" d="M201.34,520.68v19.71a2.86,2.86,0,0,1-2.85,2.86h-6.86a2.86,2.86,0,0,1-2.85-2.86V520.68h0v-1.09a9.23,9.23,0,0,0-7.86-9.26,9,9,0,0,0-10.22,8.95v1.4h0v19.71a2.85,2.85,0,0,1-2.85,2.86h-6.84a2.85,2.85,0,0,1-2.85-2.86V520.68h0v-1.4a9,9,0,0,0-18.08,0v1.4h0v6.74a2.86,2.86,0,0,1-2.85,2.85h-6.84a2.86,2.86,0,0,1-2.86-2.85v-6.75a21.55,21.55,0,0,1,21.56-21.55c6,0,12.31,3.17,15.29,7.5,2.86-4.22,9.3-7.5,15.27-7.5a21.55,21.55,0,0,1,21.56,21.55h0Z"></path><rect class="cls-5" x="839.56" y="481.56" width="13.15" height="11.93" rx="2.48" ry="2.48"></rect><path class="cls-5" d="M745.1,498.11c-13.15,0-22.54,10.72-22.54,23.2,0,12.71,9.39,23.21,22.65,23.21a23.84,23.84,0,0,0,16.46-6.07,1.81,1.81,0,0,0,.11-2.87l-4.54-5.2c-.77-.89-1.76-.66-2.86,0a15.41,15.41,0,0,1-8.62,2.75,10.51,10.51,0,0,1-10.6-9.6h28.28a2.14,2.14,0,0,0,2.1-1.88,27.33,27.33,0,0,0,.22-3A20.27,20.27,0,0,0,745.1,498.11Zm-9,17.69a8.71,8.71,0,0,1,8.62-7.52,8.27,8.27,0,0,1,8.07,7.52Z"></path><path class="cls-5" d="M797.36,498.11c-6.86,0-11,4.64-12.48,6.85l-1.56-4.3a2,2,0,0,0-2-1.45h-4.21a2.1,2.1,0,0,0-2.09,2.11v40a2.16,2.16,0,0,0,2.09,2.09h8.51c1.56,0,2.54-.55,2.54-2.09V514.58a9,9,0,0,1,7.85-4.53,11.87,11.87,0,0,1,3.2.66,2,2,0,0,0,2.55-1l4.09-7.18C807.19,499.77,802.55,498.11,797.36,498.11Z"></path><path class="cls-5" d="M824.1,476.44h-9.29a2.18,2.18,0,0,0-2.1,2.11v62.77a2.17,2.17,0,0,0,2.1,2.09h9.29a2.16,2.16,0,0,0,2.09-2.09V478.55A2.17,2.17,0,0,0,824.1,476.44Z"></path><path class="cls-5" d="M850.72,499.21h-9.16a2.12,2.12,0,0,0-2.11,2.11v40a2.17,2.17,0,0,0,2.11,2.09h9.16a2.17,2.17,0,0,0,2.1-2.09v-40A2.11,2.11,0,0,0,850.72,499.21Z"></path><path class="cls-5" d="M909.29,520.76v19.46a3,3,0,0,1-3,3h-6.49a3,3,0,0,1-3-3V519.37a9,9,0,0,0-18.08,0v1.39h0v19.46a3,3,0,0,1-3,3h-6.5a3,3,0,0,1-3-3V520.78h0v0a21.56,21.56,0,0,1,43.12,0Z"></path><rect class="cls-2" x="626.54" y="530.27" width="13.15" height="13.15" rx="2.48" ry="2.48"></rect><path class="cls-5" d="M713.5,520.68v19.71a2.85,2.85,0,0,1-2.85,2.86h-6.86a2.86,2.86,0,0,1-2.85-2.86V520.68h0v-1.09a9.24,9.24,0,0,0-7.87-9.26,9,9,0,0,0-10.21,8.95v1.4h0v19.71a2.86,2.86,0,0,1-2.86,2.86h-6.84a2.86,2.86,0,0,1-2.85-2.86V520.68h0v-1.4a9,9,0,0,0-18.08,0v1.4h0v6.74a2.85,2.85,0,0,1-2.85,2.85h-6.84a2.85,2.85,0,0,1-2.85-2.85v-6.75a21.55,21.55,0,0,1,21.56-21.55c6,0,12.3,3.17,15.28,7.5,2.86-4.22,9.3-7.5,15.28-7.5a21.55,21.55,0,0,1,21.56,21.55h0Z"></path></svg> 