<?xml version="1.0" encoding="utf-8"?>
<!-- Generator: Adobe Illustrator 23.0.2, SVG Export Plug-In . SVG Version: 6.00 Build 0)  -->
<svg version="1.1" id="Capa_1" xmlns="http://www.w3.org/2000/svg" xmlns:xlink="http://www.w3.org/1999/xlink" x="0px" y="0px"
	 viewBox="0 0 499.9 271.6" style="enable-background:new 0 0 499.9 271.6;" xml:space="preserve">
<style type="text/css">
	.st0{fill:#3C3C3B;}
	.st1{fill:#FFFFFF;}
</style>
<g>
	<g>
		<path class="st0" d="M59.5,77.2V37.6c0-11.5-6.3-20.3-18.3-20.3c-11.5,0-19.3,9.7-19.3,21.2v38.7H3.4V1.4h16.7l1.2,10.3
			C29,4.1,36.7,0.3,46.2,0.3c17.8,0,32.1,13.3,32.1,37.1v39.7H59.5z"/>
		<path class="st1" d="M169.5,39.4c0,21.8-14.9,39.4-39.4,39.4S90.8,61.2,90.8,39.4c0-21.6,15-39.4,39.1-39.4
			C154,0,169.5,17.8,169.5,39.4z M109.5,39.4c0,11.5,6.9,22.2,20.6,22.2c13.7,0,20.6-10.7,20.6-22.2c0-11.4-8-22.4-20.6-22.4
			C116.6,17,109.5,28.1,109.5,39.4z"/>
		<path class="st0" d="M63.2,141L77,151.5l-8.4,10.7c5.8,6.6,8,14.1,8,22.4c0,9.4-3.5,22.6-16,28.2c12.6,6.3,15.6,15.3,15.6,25
			c0,20.9-16,33.8-37.9,33.8S0,258.3,0,237.9h18.6c0,9.8,9.1,16.3,19.8,16.3s19.2-5.8,19.2-16.3c0-10.4-9.8-15.2-19.2-15.2
			C14.7,222.7,0,208.2,0,184.6s17.2-38.4,38.4-38.4c6,0,12.1,0.8,17.3,4.3L63.2,141z M18.6,184.6c0,13.2,8.9,21,19.8,21
			c10.7,0,19.6-8,19.6-21c0-13-8.9-21.3-19.6-21.3C27.5,163.3,18.6,171.4,18.6,184.6z"/>
		<path class="st0" d="M104.5,193.2c1.2,9.4,9.4,16.1,22.6,16.1c6.9,0,16-2.6,20.3-7.1l12,11.8c-8,8.3-21,12.3-32.5,12.3
			c-26.1,0-41.6-16.1-41.6-40.3c0-23,15.6-39.6,40.2-39.6c25.3,0,41.1,15.7,38.2,46.8H104.5z M102.8,115h22.1l11.4,20.9v0.9h-16.6
			l-16.9-21V115z M145.6,177.7c-1.2-9.8-8.9-14.7-19.6-14.7c-10.1,0-18.4,4.9-21.2,14.7H145.6z"/>
		<path class="st0" d="M233.7,224.4v-39.6c0-11.5-6.3-20.3-18.3-20.3c-11.5,0-19.3,9.7-19.3,21.2v38.7h-18.6v-75.8h16.7l1.2,10.3
			c7.7-7.5,15.3-11.4,24.9-11.4c17.8,0,32.1,13.4,32.1,37.1v39.7H233.7z"/>
		<path class="st0" d="M284.4,193.2c1.2,9.4,9.4,16.1,22.6,16.1c6.9,0,16-2.6,20.3-7.1l12,11.8c-8,8.3-21,12.3-32.5,12.3
			c-26.1,0-41.6-16.1-41.6-40.3c0-23,15.6-39.6,40.2-39.6c25.3,0,41.1,15.7,38.2,46.8H284.4z M325.6,177.7
			c-1.2-9.8-8.9-14.7-19.6-14.7c-10.1,0-18.4,4.9-21.2,14.7H325.6z"/>
		<path class="st0" d="M375.3,148.7l1.4,8.7c5.8-9.4,13.7-10.7,21.3-10.7c7.8,0,15.3,3.1,19.5,7.2l-8.4,16.3
			c-3.8-3.2-7.4-4.9-13.5-4.9c-9.8,0-18.9,5.2-18.9,19.2v39.9h-18.7v-75.6H375.3z"/>
		<path class="st0" d="M440.5,193.2c1.2,9.4,9.4,16.1,22.6,16.1c6.9,0,16-2.6,20.3-7.1l12,11.8c-8,8.3-21,12.3-32.5,12.3
			c-26.1,0-41.6-16.1-41.6-40.3c0-23,15.6-39.6,40.2-39.6c25.3,0,41.1,15.7,38.2,46.8H440.5z M481.6,177.7
			c-1.2-9.8-8.9-14.7-19.6-14.7c-10.1,0-18.4,4.9-21.2,14.7H481.6z"/>
	</g>
</g>
</svg>
