<?xml version="1.0" encoding="utf-8"?>
<!-- Generator: Adobe Illustrator 23.0.2, SVG Export Plug-In . SVG Version: 6.00 Build 0)  -->
<svg version="1.1" id="Capa_1" xmlns="http://www.w3.org/2000/svg" xmlns:xlink="http://www.w3.org/1999/xlink" x="0px" y="0px"
	 viewBox="0 0 500 120.4" style="enable-background:new 0 0 500 120.4;" xml:space="preserve">
<style type="text/css">
	.st0{fill:#FFFFFF;}
	.st1{fill:#E73A3F;}
</style>
<path class="st0" d="M381.1,9.1h14.5c2.4,0,4.4,2,4.4,4.4v12.3c0,2.4-2,4.4-4.4,4.4h-14.5c-2.4,0-4.4-2-4.4-4.4V13.4
	C376.7,11,378.7,9.1,381.1,9.1z"/>
<path class="st0" d="M209.7,38.3c-23.3,0-39.9,19-39.9,41c0,22.5,16.6,41,40.1,41c10.7,0.2,21.1-3.6,29.1-10.7c1.4-1,1.8-3,0.7-4.5
	c-0.2-0.2-0.4-0.4-0.6-0.6l-8-9.2c-1.4-1.6-3.1-1.2-5.1,0c-4.5,3.1-9.8,4.8-15.2,4.9c-9.7,0.1-17.9-7.3-18.8-17h50
	c1.9,0,3.5-1.4,3.7-3.3c0.2-1.8,0.3-3.5,0.4-5.3c0.3-19.8-15.5-36-35.3-36.3C210.5,38.3,210.1,38.3,209.7,38.3z M193.7,69.6
	c1-7.6,7.6-13.3,15.2-13.3c7.5,0.1,13.6,5.9,14.3,13.3H193.7z"/>
<path class="st0" d="M302.1,38.3c-12.1,0-19.3,8.2-22.1,12.1l-2.7-7.6c-0.4-1.6-1.9-2.6-3.5-2.6h-7.4c-2.1,0-3.7,1.7-3.7,3.7v0v70.7
	c0.1,2,1.7,3.6,3.7,3.7h15c2.7,0,4.5-1,4.5-3.7V67.4c2.8-5,8.1-8,13.9-8c1.9,0.1,3.8,0.5,5.7,1.2c1.7,0.7,3.7-0.1,4.5-1.8l7.2-12.7
	C319.4,41.3,311.3,38.3,302.1,38.3z"/>
<path class="st0" d="M349.3,0h-16.4c-2,0.1-3.6,1.7-3.7,3.7v111c0.1,2,1.7,3.6,3.7,3.7h16.4c2-0.1,3.6-1.7,3.7-3.7V3.7
	C353,1.7,351.4,0.1,349.3,0z"/>
<path class="st0" d="M396.4,40.3h-16.2c-2.1,0-3.7,1.7-3.7,3.7v70.7c0.1,2,1.7,3.6,3.7,3.7h16.2c2-0.1,3.7-1.7,3.7-3.7V44
	C400.1,41.9,398.5,40.3,396.4,40.3z"/>
<path class="st0" d="M500,78.4v34.4c0,2.9-2.4,5.3-5.3,5.3h-11.5c-2.9,0-5.3-2.4-5.3-5.3V75.9c0-8.8-7.2-16-16-16
	c-8.8,0-16,7.2-16,16v2.5l0,0v34.4c0,2.9-2.4,5.3-5.3,5.3h-11.6c-2.9,0-5.3-2.4-5.3-5.3V78.4l0,0l0,0c0-21.1,17.1-38.1,38.1-38.1
	C482.9,40.3,500,57.4,500,78.4L500,78.4z"/>
<path class="st1" d="M4.4,95.2h14.5c2.4,0,4.4,2,4.4,4.4v14.5c0,2.4-2,4.4-4.4,4.4H4.4c-2.4,0-4.4-2-4.4-4.4V99.6
	C0,97.2,2,95.2,4.4,95.2z"/>
<path class="st0" d="M153.8,78.2v34.9c0,2.8-2.3,5-5,5.1h-12.1c-2.8,0-5-2.3-5-5.1V78.2l0,0v-1.9c0.1-8.2-5.8-15.2-13.9-16.4
	c-8.7-1.2-16.7,4.9-17.9,13.6c-0.1,0.7-0.1,1.5-0.1,2.2v2.5l0,0v34.9c0,2.8-2.2,5-5,5.1c0,0,0,0,0,0H82.5c-2.8,0-5-2.3-5-5
	c0,0,0,0,0,0V78.2l0,0v-2.5c0-8.8-7.2-16-16-16c-8.8,0-16,7.2-16,16v2.5l0,0v11.9c0,2.8-2.3,5-5,5H28.3c-2.8,0-5-2.3-5.1-5V78.2
	c0-21,17.1-38.1,38.1-38.1c0,0,0,0,0,0c10.6,0,21.8,5.6,27,13.3c5.1-7.5,16.4-13.3,27-13.3c21,0,38.1,17,38.1,38.1c0,0,0,0,0,0l0,0
	L153.8,78.2z"/>
</svg>
