<?xml version="1.0" encoding="utf-8"?>
<!-- Generator: Adobe Illustrator 23.0.2, SVG Export Plug-In . SVG Version: 6.00 Build 0)  -->
<svg version="1.1" id="Capa_1" xmlns="http://www.w3.org/2000/svg" xmlns:xlink="http://www.w3.org/1999/xlink" x="0px" y="0px"
	 viewBox="0 0 500 153.6" style="enable-background:new 0 0 500 153.6;" xml:space="preserve">
<style type="text/css">
	.st0{fill:#494846;}
	.st1{fill:#FF158A;}
	.st2{fill:#14B79C;}
</style>
<g>
	<path class="st0" d="M80.9,54.8V28c0-1,0-1.8-0.1-2.6c-0.1-0.8-0.1-1.3-0.3-1.8c-0.1-0.5-0.4-0.8-0.7-1.1c-0.3-0.3-0.7-0.4-1.2-0.4
		c-0.8,0-1.6,0.6-2.4,1.6c-0.8,1.1-1.7,2.9-2.7,5.5v25.6h-8.1V28c0-1,0-1.8-0.1-2.6s-0.1-1.3-0.3-1.8c-0.1-0.5-0.4-0.8-0.7-1.1
		c-0.3-0.3-0.7-0.4-1.3-0.4c-0.7,0-1.4,0.6-2.2,1.6c-0.8,1.1-1.8,2.9-2.7,5.5v25.6h-8.3V15.4h7l0.1,5.7c0.6-1.2,1.1-2.2,1.7-3
		c0.6-0.8,1.2-1.5,1.8-2c0.6-0.6,1.3-0.9,2.1-1.1s1.5-0.4,2.5-0.4c2.2,0,3.9,0.6,5,1.8c1.1,1.1,1.8,2.7,2,4.8c0.6-1.2,1.3-2.2,1.8-3
		c0.6-0.8,1.3-1.5,1.9-2c0.6-0.6,1.4-0.9,2.1-1.1c0.8-0.2,1.6-0.4,2.5-0.4c2.9,0,5,1,6.4,3c1.4,2,2,5,2,8.9v28.3H80.9z"/>
	<path class="st0" d="M129.3,54.8l-0.2-5.2c-0.8,0.9-1.7,1.7-2.6,2.5s-1.9,1.4-3,1.9c-1.1,0.6-2.2,1-3.6,1.3
		c-1.3,0.3-2.7,0.4-4.2,0.4c-2,0-3.8-0.3-5.3-0.9c-1.5-0.6-2.8-1.4-3.9-2.5c-1.1-1.1-1.8-2.3-2.3-3.9c-0.6-1.5-0.8-3.2-0.8-5
		c0-1.9,0.4-3.6,1.2-5.2c0.8-1.6,2-2.9,3.6-4.1s3.6-2,6-2.7c2.5-0.6,5.3-1,8.5-1h5.2v-2.3c0-1-0.1-1.9-0.4-2.7s-0.8-1.5-1.4-2.1
		c-0.6-0.6-1.5-1-2.5-1.3c-1-0.3-2.2-0.5-3.7-0.5c-2.3,0-4.6,0.3-6.9,0.8c-2.2,0.6-4.5,1.3-6.6,2.2v-7.5c1.9-0.8,4.1-1.4,6.5-1.9
		s5-0.8,7.7-0.8c2.9,0,5.5,0.3,7.5,0.8c2.1,0.6,3.9,1.4,5.2,2.5c1.3,1.1,2.4,2.5,3,4.2c0.6,1.7,1,3.6,1,5.8v26.9L129.3,54.8
		L129.3,54.8z M128,37.4h-5.7c-1.6,0-2.9,0.1-4.1,0.5c-1.1,0.3-2,0.8-2.7,1.3c-0.7,0.6-1.2,1.2-1.5,1.9c-0.4,0.7-0.5,1.5-0.5,2.2
		c0,1.6,0.5,2.8,1.5,3.6c1.1,0.8,2.5,1.3,4.2,1.3c1.3,0,2.7-0.5,4.1-1.4c1.4-1,3-2.3,4.7-4.1V37.4z"/>
	<path class="st0" d="M180.6,54.8L166,35.1v19.7h-9.5V0h9.5v32.1l13.8-16.7h11.8l-16,17.9L193,54.8L180.6,54.8L180.6,54.8z"/>
	<path class="st0" d="M242.1,32.1c0,0.6,0,1.5-0.1,2.5s-0.1,2-0.1,2.9H216c0,1.8,0.3,3.2,0.8,4.6c0.6,1.3,1.3,2.5,2.2,3.3
		c1,0.9,2.1,1.5,3.5,2c1.3,0.5,2.9,0.7,4.5,0.7c1.9,0,4-0.1,6.2-0.4c2.2-0.3,4.5-0.8,6.8-1.5v7.5c-1,0.3-2.1,0.6-3.3,0.8
		c-1.2,0.2-2.4,0.4-3.6,0.6c-1.3,0.2-2.5,0.4-3.8,0.4c-1.3,0.1-2.5,0.1-3.7,0.1c-3,0-5.7-0.4-8.1-1.3c-2.4-0.8-4.4-2.1-6-3.8
		c-1.7-1.7-2.9-3.7-3.8-6.2c-0.9-2.5-1.3-5.3-1.3-8.5c0-3.2,0.4-6.1,1.3-8.8c0.9-2.6,2.1-4.9,3.7-6.7c1.6-1.9,3.6-3.3,5.8-4.3
		c2.3-1.1,4.8-1.5,7.6-1.5c2.8,0,5.3,0.4,7.4,1.3c2.2,0.8,3.9,2.1,5.4,3.6c1.5,1.5,2.5,3.4,3.3,5.5
		C241.7,27.2,242.1,29.5,242.1,32.1z M232.5,30.7c0-1.5-0.1-2.9-0.6-4.1c-0.4-1.1-1-2.1-1.7-2.9c-0.7-0.8-1.5-1.3-2.5-1.7
		c-0.9-0.4-2-0.6-3-0.6c-2.4,0-4.3,0.8-5.9,2.4c-1.5,1.6-2.5,3.9-2.7,6.7L232.5,30.7L232.5,30.7z"/>
	<path class="st1" d="M291.8,43.2c0,2.2-0.5,4.2-1.5,5.7c-1,1.6-2.3,2.9-3.9,3.9c-1.6,1-3.5,1.8-5.6,2.2c-2.1,0.4-4.2,0.7-6.4,0.7
		c-2.9,0-5.5-0.1-7.8-0.4s-4.6-0.6-6.6-1.2v-8.5c2.5,1,4.8,1.8,7.3,2.2c2.5,0.4,4.7,0.7,6.9,0.7c2.5,0,4.3-0.4,5.5-1.2
		c1.3-0.8,1.8-1.8,1.8-3.1c0-0.6-0.1-1.1-0.4-1.6c-0.3-0.5-0.8-1-1.5-1.4c-0.7-0.4-1.7-0.9-3-1.4c-1.3-0.5-3-1-5.1-1.6
		c-2-0.6-3.6-1.2-5.1-1.8c-1.5-0.7-2.7-1.5-3.6-2.5c-1-0.9-1.7-2-2.2-3.2c-0.5-1.3-0.7-2.7-0.7-4.3c0-1.6,0.4-3.1,1.1-4.6
		c0.7-1.4,1.8-2.7,3.2-3.7c1.4-1.1,3.2-1.9,5.4-2.5c2.2-0.6,4.6-0.9,7.5-0.9c2.5,0,4.7,0.1,6.6,0.4c1.9,0.3,3.6,0.6,5.1,0.8v7.7
		c-2.2-0.7-4.3-1.3-6.4-1.5c-2-0.3-3.9-0.4-5.9-0.4c-2,0-3.5,0.4-4.7,1.1c-1.2,0.7-1.8,1.7-1.8,2.9c0,0.6,0.1,1.1,0.4,1.6
		c0.2,0.5,0.7,0.9,1.4,1.3c0.7,0.4,1.6,0.9,2.9,1.4c1.3,0.5,2.9,1,4.8,1.5c2.2,0.6,4.2,1.3,5.7,2.1c1.5,0.8,2.8,1.5,3.7,2.5
		c0.9,0.9,1.6,2,2,3.2C291.6,40.3,291.8,41.7,291.8,43.2z"/>
	<path class="st1" d="M305.6,70.7v-7.5h43.6v7.5H305.6z"/>
	<path class="st1" d="M390.4,54.8V28c0-1,0-1.8-0.1-2.6s-0.1-1.3-0.3-1.8c-0.1-0.5-0.4-0.8-0.7-1.1c-0.3-0.3-0.7-0.4-1.2-0.4
		c-0.8,0-1.6,0.6-2.4,1.6c-0.8,1.1-1.7,2.9-2.7,5.5v25.6h-8.1V28c0-1,0-1.8-0.1-2.6c-0.1-0.8-0.1-1.3-0.3-1.8
		c-0.1-0.5-0.4-0.8-0.7-1.1c-0.3-0.3-0.7-0.4-1.3-0.4c-0.7,0-1.4,0.6-2.2,1.6c-0.8,1.1-1.8,2.9-2.7,5.5v25.6h-8.2V15.4h7l0.1,5.7
		c0.6-1.2,1.1-2.2,1.7-3c0.6-0.8,1.2-1.5,1.8-2c0.6-0.6,1.3-0.9,2.1-1.1s1.5-0.4,2.5-0.4c2.2,0,3.9,0.6,5,1.8c1.1,1.1,1.8,2.7,2,4.8
		c0.6-1.2,1.3-2.2,1.8-3c0.6-0.8,1.3-1.5,1.9-2c0.6-0.6,1.4-0.9,2.1-1.1c0.8-0.2,1.6-0.4,2.5-0.4c2.9,0,5,1,6.4,3c1.4,2,2,5,2,8.9
		v28.3H390.4z"/>
	<path class="st1" d="M448.4,32.1c0,0.6,0,1.5-0.1,2.5s-0.1,2-0.1,2.9h-25.9c0,1.8,0.3,3.2,0.8,4.6c0.6,1.3,1.3,2.5,2.2,3.3
		c1,0.9,2.1,1.5,3.5,2c1.3,0.5,2.9,0.7,4.5,0.7c1.9,0,4-0.1,6.2-0.4c2.2-0.3,4.5-0.8,6.8-1.5v7.5c-1,0.3-2.1,0.6-3.3,0.8
		c-1.2,0.2-2.4,0.4-3.6,0.6c-1.3,0.2-2.5,0.4-3.8,0.4c-1.3,0.1-2.5,0.1-3.7,0.1c-3,0-5.7-0.4-8.1-1.3c-2.4-0.8-4.4-2.1-6-3.8
		c-1.7-1.7-2.9-3.7-3.8-6.2c-0.9-2.5-1.3-5.3-1.3-8.5c0-3.2,0.4-6.1,1.3-8.8c0.9-2.6,2.1-4.9,3.7-6.7c1.6-1.9,3.6-3.3,5.8-4.3
		c2.3-1.1,4.8-1.5,7.6-1.5c2.8,0,5.3,0.4,7.4,1.3c2.2,0.8,3.9,2.1,5.4,3.6c1.5,1.5,2.5,3.4,3.3,5.5C448,27.2,448.4,29.5,448.4,32.1z
		 M438.8,30.7c0-1.5-0.1-2.9-0.6-4.1c-0.4-1.1-1-2.1-1.7-2.9c-0.7-0.8-1.5-1.3-2.5-1.7c-0.9-0.4-2-0.6-3-0.6c-2.4,0-4.3,0.8-5.9,2.4
		c-1.5,1.6-2.5,3.9-2.7,6.7L438.8,30.7L438.8,30.7z"/>
	<path class="st2" d="M26.2,138.3L0,116.2l26.2-21.9l6,6.1L13,116.2l19.3,16L26.2,138.3z"/>
	<path class="st2" d="M59.7,145.7h-9.2l27-63.1h9.2L59.7,145.7z"/>
	<path class="st0" d="M129.4,137.4l-0.2-5.8c-0.8,1-1.7,2-2.6,2.7c-0.9,0.8-1.8,1.5-2.8,2.1c-1,0.6-2.1,1.1-3.2,1.3
		c-1.1,0.4-2.5,0.5-3.9,0.5c-2.3,0-4.4-0.5-6.2-1.4c-1.8-0.9-3.4-2.2-4.6-4c-1.3-1.8-2.2-3.8-2.8-6.2s-1-5.2-1-8.2
		c0-3.6,0.5-6.7,1.5-9.4c1.1-2.7,2.5-4.8,4.3-6.6c1.8-1.8,3.9-3,6.4-3.9c2.5-0.8,5.2-1.3,8.1-1.3c1,0,2,0.1,2.9,0.2
		c1,0.1,1.9,0.3,2.7,0.5V82.6h9.5v54.8H129.4z M112.1,118c0,2.2,0.1,4,0.4,5.5c0.3,1.5,0.8,2.8,1.3,3.8c0.6,1,1.3,1.7,2.2,2.2
		c0.8,0.5,1.8,0.7,2.9,0.7c1.6,0,3.2-0.6,4.6-2c1.5-1.3,3-3.1,4.6-5.3v-17.2c-0.8-0.3-1.7-0.5-2.8-0.7c-1.1-0.2-2.2-0.3-3.3-0.3
		c-1.5,0-2.9,0.3-4.1,0.9c-1.2,0.6-2.2,1.5-3.2,2.7c-0.8,1.1-1.5,2.5-2,4.2C112.3,114.1,112.1,116,112.1,118z"/>
	<path class="st0" d="M169,105.4h-11.1V98h20.8v32H190v7.4h-33.5V130h12.5L169,105.4L169,105.4z M179.4,87.2c0,0.8-0.1,1.7-0.5,2.4
		c-0.3,0.8-0.8,1.4-1.3,2c-0.6,0.6-1.2,1-2,1.3c-0.8,0.4-1.5,0.5-2.5,0.5s-1.7-0.1-2.5-0.5s-1.4-0.8-2-1.3c-0.6-0.6-1-1.2-1.3-2
		c-0.3-0.8-0.5-1.5-0.5-2.4c0-0.8,0.1-1.7,0.5-2.4c0.4-0.7,0.8-1.4,1.3-2c0.6-0.6,1.2-1,2-1.3s1.6-0.5,2.5-0.5
		c0.9,0,1.7,0.1,2.5,0.5s1.4,0.8,2,1.3c0.6,0.6,1,1.3,1.3,2C179.2,85.6,179.4,86.4,179.4,87.2z"/>
	<path class="st0" d="M237.3,104.9c0.7,0.9,1.3,1.8,1.5,2.9c0.3,1,0.4,2,0.4,3c0,2.2-0.4,4.1-1.1,5.8c-0.8,1.7-1.8,3.1-3.2,4.2
		c-1.4,1.1-3,2-5,2.6c-1.9,0.6-4.1,0.8-6.4,0.8c-1.4,0-2.7-0.1-3.8-0.4c-1.2-0.3-2-0.6-2.7-1c-0.4,0.4-0.8,0.9-1.1,1.5
		c-0.3,0.6-0.5,1.1-0.5,1.8c0,0.4,0.1,0.8,0.3,1.3c0.2,0.4,0.5,0.8,0.9,1.1c0.4,0.4,0.9,0.6,1.4,0.8c0.6,0.2,1.2,0.4,1.9,0.4
		l9.3,0.4c2.1,0.1,4,0.4,5.7,0.8c1.7,0.5,3.2,1.2,4.3,2c1.2,0.9,2.2,2,2.8,3.2s1,2.7,1,4.3c0,1.8-0.4,3.6-1.3,5.2
		c-0.8,1.6-2.1,3-3.7,4.3c-1.7,1.2-3.7,2.2-6.2,2.9c-2.5,0.7-5.4,1.1-8.6,1.1c-3.2,0-5.9-0.3-8.2-0.8c-2.3-0.5-4.1-1.2-5.6-2.1
		c-1.5-0.9-2.5-2-3.2-3.2s-1.1-2.7-1.1-4.1c0-0.9,0.1-1.8,0.4-2.5c0.2-0.8,0.6-1.5,1.1-2.2c0.5-0.7,1.1-1.4,1.8-2.1
		c0.7-0.7,1.5-1.3,2.5-2c-1.3-0.7-2.2-1.7-2.9-2.8s-1-2.4-1-3.6c0-0.9,0.1-1.7,0.4-2.5c0.2-0.8,0.6-1.5,0.9-2.2
		c0.4-0.7,0.8-1.4,1.3-2c0.5-0.6,1-1.3,1.5-1.9c-1-1-1.8-2.1-2.4-3.5c-0.6-1.3-1-3.1-1-5.1c0-2.2,0.4-4.1,1.2-5.9
		c0.8-1.8,1.9-3.2,3.3-4.3s3.1-2.1,5-2.7c1.9-0.6,4-0.9,6.3-0.9c1.2,0,2.3,0.1,3.4,0.2c1.1,0.1,2,0.4,2.9,0.6h13.7v6.9L237.3,104.9
		L237.3,104.9z M215,142.6c0,1.5,0.8,2.7,2.3,3.4c1.5,0.7,3.7,1.1,6.5,1.1c1.8,0,3.3-0.1,4.5-0.5c1.3-0.4,2.2-0.8,3-1.3
		c0.8-0.6,1.3-1.2,1.7-1.9c0.4-0.7,0.5-1.5,0.5-2.2c0-0.7-0.1-1.3-0.5-1.8c-0.4-0.5-0.8-0.9-1.3-1.2c-0.6-0.4-1.3-0.6-2-0.8
		c-0.8-0.1-1.7-0.3-2.6-0.4l-8.3-0.1c-0.8,0.5-1.3,1-1.8,1.5c-0.5,0.5-0.8,0.9-1.1,1.4c-0.3,0.4-0.4,0.9-0.6,1.4
		C215.1,141.6,215,142.1,215,142.6z M216.6,111c0,2.1,0.6,3.8,1.8,5c1.3,1.3,2.9,1.8,5.1,1.8c1.2,0,2.2-0.2,3-0.6
		c0.8-0.4,1.6-0.9,2.2-1.5c0.6-0.6,1-1.4,1.3-2.2c0.3-0.8,0.4-1.8,0.4-2.7c0-2.2-0.6-3.9-1.8-5.1c-1.3-1.3-2.9-1.8-5.1-1.8
		c-1.2,0-2.2,0.2-3,0.6c-0.8,0.4-1.6,0.9-2.2,1.5c-0.6,0.6-1,1.4-1.3,2.3C216.8,109.2,216.6,110.1,216.6,111z"/>
	<path class="st0" d="M272.1,105.4H261V98h20.8v32h11.3v7.4h-33.5V130H272L272.1,105.4L272.1,105.4z M282.5,87.2
		c0,0.8-0.1,1.7-0.5,2.4c-0.3,0.8-0.8,1.4-1.3,2c-0.6,0.6-1.2,1-2,1.3s-1.5,0.5-2.5,0.5s-1.7-0.1-2.5-0.5c-0.8-0.4-1.4-0.8-2-1.3
		c-0.6-0.6-1-1.2-1.3-2c-0.3-0.8-0.5-1.5-0.5-2.4c0-0.8,0.1-1.7,0.5-2.4c0.3-0.8,0.8-1.4,1.3-2c0.6-0.6,1.2-1,2-1.3s1.6-0.5,2.5-0.5
		c0.9,0,1.7,0.1,2.5,0.5c0.8,0.4,1.4,0.8,2,1.3c0.6,0.6,1,1.3,1.3,2C282.4,85.6,282.5,86.4,282.5,87.2z"/>
	<path class="st0" d="M343.4,137c-1.7,0.4-3.4,0.7-5.2,0.9c-1.8,0.2-3.4,0.4-4.9,0.4c-2.6,0-4.8-0.3-6.7-0.8
		c-1.9-0.6-3.4-1.4-4.6-2.5s-2.1-2.5-2.7-4.3c-0.6-1.8-0.8-3.8-0.8-6.2v-19.3h-10.6V98h10.6V87.9l9.7-2.5V98h15.3v7.4h-15.3v18.6
		c0,2.2,0.5,3.9,1.5,5.1c1.1,1.1,2.7,1.8,5.2,1.8c1.5,0,3.1-0.1,4.6-0.4c1.5-0.3,2.8-0.6,4.1-0.9L343.4,137L343.4,137z"/>
	<path class="st0" d="M387.2,137.4l-0.2-5.2c-0.8,0.9-1.7,1.7-2.6,2.5c-0.9,0.8-1.9,1.4-3,1.9c-1.1,0.6-2.2,1-3.6,1.3
		c-1.3,0.3-2.7,0.4-4.2,0.4c-2,0-3.8-0.3-5.3-0.9c-1.5-0.6-2.8-1.4-3.9-2.5c-1.1-1.1-1.8-2.3-2.3-3.9c-0.6-1.5-0.8-3.2-0.8-5
		c0-1.9,0.4-3.6,1.2-5.2c0.8-1.6,2-2.9,3.6-4.1c1.6-1.1,3.6-2,6-2.7c2.5-0.6,5.3-1,8.5-1h5.2v-2.2c0-1-0.1-1.9-0.4-2.7
		c-0.3-0.8-0.8-1.5-1.4-2.1c-0.6-0.6-1.5-1-2.5-1.3c-1-0.3-2.2-0.5-3.7-0.5c-2.3,0-4.6,0.3-6.9,0.8c-2.2,0.6-4.5,1.3-6.6,2.2v-7.6
		c1.9-0.8,4.1-1.4,6.5-1.9c2.5-0.5,5-0.8,7.7-0.8c2.9,0,5.4,0.3,7.5,0.8c2.1,0.6,3.9,1.4,5.2,2.5c1.3,1.1,2.4,2.5,3,4.2
		c0.6,1.7,1,3.6,1,5.8v26.9L387.2,137.4L387.2,137.4z M385.9,120h-5.7c-1.6,0-2.9,0.1-4.1,0.5c-1.1,0.3-2,0.8-2.7,1.3
		c-0.7,0.6-1.2,1.2-1.5,1.9c-0.4,0.7-0.5,1.5-0.5,2.2c0,1.6,0.5,2.8,1.5,3.6c1.1,0.8,2.5,1.3,4.2,1.3c1.3,0,2.7-0.5,4.1-1.4
		c1.4-1,3-2.3,4.7-4.1V120z"/>
	<path class="st0" d="M426.8,90h-11.1v-7.4h20.8V130h11.3v7.4h-33.5V130h12.5L426.8,90L426.8,90z"/>
	<path class="st2" d="M473.9,94.3l26.1,22l-26.1,22l-6-6.1l19.2-15.8l-19.2-16L473.9,94.3z"/>
</g>
</svg>
