<svg xmlns="http://www.w3.org/2000/svg" viewBox="0 0 390.26 197.37"><defs><style>.cls-1{fill:#fff;}</style></defs><title>inici-lemar</title><g id="Capa_2" data-name="Capa 2"><g id="Capa_1-2" data-name="Capa 1"><path class="cls-1" d="M246.77,61.88A26.39,26.39,0,0,1,220.18,88.4H220A24.87,24.87,0,0,1,198.4,75.22l-2-3.6a1.5,1.5,0,0,0-2.64,0l-1.95,3.6A24.86,24.86,0,0,1,170.3,88.4h-.22a26.39,26.39,0,0,1-26.59-26.52A25.76,25.76,0,0,1,151.25,43L193.61.63a2.15,2.15,0,0,1,3,0L239,43A25.76,25.76,0,0,1,246.77,61.88Z"/><path class="cls-1" d="M209.74,100.63H180a.77.77,0,0,1-.45-1.38c9.2-7,13.07-14.67,14.53-18.45a.83.83,0,0,1,1.55,0c1.46,3.78,5.33,11.44,14.54,18.45A.77.77,0,0,1,209.74,100.63Z"/><path class="cls-1" d="M0,138a1.63,1.63,0,0,1,1.61-1.64H9.43A1.69,1.69,0,0,1,11.05,138v48.22H32.72a1.63,1.63,0,0,1,1.62,1.64v7a1.62,1.62,0,0,1-1.62,1.63H1.61A1.62,1.62,0,0,1,0,194.88Z"/><path class="cls-1" d="M73.51,138a1.63,1.63,0,0,1,1.62-1.64h34.59a1.63,1.63,0,0,1,1.61,1.64V145a1.62,1.62,0,0,1-1.61,1.63H84.56v14.1h21a1.67,1.67,0,0,1,1.61,1.63v7.14a1.62,1.62,0,0,1-1.61,1.63h-21v15h25.16a1.63,1.63,0,0,1,1.61,1.64v7a1.62,1.62,0,0,1-1.61,1.63H75.13a1.62,1.62,0,0,1-1.62-1.63Z"/><path class="cls-1" d="M160.29,136.76a1.44,1.44,0,0,1,1.53-1.29h1.36a1.56,1.56,0,0,1,1.44.86l18.7,40.58h.25l18.7-40.58a1.48,1.48,0,0,1,1.45-.86h1.36a1.45,1.45,0,0,1,1.53,1.29l10,57.77a1.49,1.49,0,0,1-1.53,2h-7.74a1.85,1.85,0,0,1-1.61-1.29l-5-32.58h-.25l-14.88,33.78a1.44,1.44,0,0,1-1.44,1h-1.53a1.53,1.53,0,0,1-1.45-1l-15-33.78h-.25L161,195.22a1.66,1.66,0,0,1-1.53,1.29h-7.65a1.57,1.57,0,0,1-1.62-2Z"/><path class="cls-1" d="M251.13,194.27l26.44-57.85a1.52,1.52,0,0,1,1.44-.95h.85a1.45,1.45,0,0,1,1.45.95l26.17,57.85a1.51,1.51,0,0,1-1.44,2.24h-7.39a2.45,2.45,0,0,1-2.47-1.72L292,185.51H266.6l-4.16,9.28a2.57,2.57,0,0,1-2.47,1.72h-7.39A1.53,1.53,0,0,1,251.13,194.27ZM287.85,176l-8.5-18.91h-.25L270.77,176Z"/><path class="cls-1" d="M345.81,138a1.63,1.63,0,0,1,1.62-1.64h24.3a18.52,18.52,0,0,1,18.53,18.49c0,7.9-5.18,14.35-12.58,17.36L389.33,194a1.63,1.63,0,0,1-1.45,2.49H379a1.45,1.45,0,0,1-1.36-.77L366.29,173h-9.43v21.93a1.68,1.68,0,0,1-1.62,1.63h-7.81a1.62,1.62,0,0,1-1.62-1.63Zm25,25.79a8.71,8.71,0,0,0,8.41-8.77,8.5,8.5,0,0,0-8.41-8.34H356.94v17.11Z"/></g></g></svg>