<svg width="876" height="111" viewBox="0 0 876 111" fill="none" xmlns="http://www.w3.org/2000/svg">
<path d="M38.144 88.32C28.928 88.32 21.504 86.8693 15.872 83.968C10.24 81.0666 6.18662 76.928 3.71196 71.552C1.23729 66.176 -4.3869e-05 59.7333 -4.3869e-05 52.224V48.512H20.352V52.224C20.352 56.4053 20.7786 59.776 21.632 62.336C22.4853 64.896 24.192 66.7733 26.752 67.968C29.312 69.0773 33.1093 69.632 38.144 69.632C43.264 69.632 47.104 69.12 49.664 68.096C52.224 66.9866 53.9306 65.1946 54.784 62.72C55.7226 60.2453 56.192 57.0453 56.192 53.12V1.27998H76.544V53.12C76.544 60.4586 75.264 66.7733 72.704 72.064C70.2293 77.2693 66.176 81.28 60.544 84.096C54.912 86.912 47.4453 88.32 38.144 88.32ZM120.376 88.32C113.123 88.32 106.723 86.9546 101.176 84.224C95.7146 81.4933 91.448 77.6533 88.376 72.704C85.304 67.6693 83.768 61.7813 83.768 55.04C83.768 48.2133 85.304 42.3253 88.376 37.376C91.448 32.3413 95.7146 28.4586 101.176 25.728C106.723 22.9973 113.123 21.632 120.376 21.632C127.715 21.632 134.115 22.9973 139.576 25.728C145.037 28.4586 149.304 32.3413 152.376 37.376C155.448 42.3253 156.984 48.2133 156.984 55.04C156.984 61.7813 155.448 67.6693 152.376 72.704C149.304 77.6533 145.037 81.4933 139.576 84.224C134.115 86.9546 127.715 88.32 120.376 88.32ZM120.376 71.296C126.861 71.296 131.384 70.016 133.944 67.456C136.589 64.8106 137.912 60.672 137.912 55.04C137.912 49.3226 136.589 45.1413 133.944 42.496C131.384 39.8506 126.861 38.528 120.376 38.528C113.891 38.528 109.325 39.8506 106.68 42.496C104.12 45.1413 102.84 49.3226 102.84 55.04C102.84 60.672 104.12 64.8106 106.68 67.456C109.325 70.016 113.891 71.296 120.376 71.296ZM184.025 87.04H164.825V22.912H182.617V41.216L184.025 41.856V87.04ZM184.025 49.92H180.185V39.936H183.769C184.366 36.4373 185.518 33.3226 187.225 30.592C189.017 27.776 191.406 25.6 194.393 24.064C197.38 22.4426 201.006 21.632 205.273 21.632C210.137 21.632 214.02 22.656 216.921 24.704C219.908 26.6666 222.084 29.3546 223.449 32.768C224.814 36.096 225.497 39.8506 225.497 44.032V54.656H206.297V48C206.297 44.416 205.486 41.856 203.865 40.32C202.329 38.6986 199.598 37.888 195.673 37.888C191.406 37.888 188.377 38.8693 186.585 40.832C184.878 42.7946 184.025 45.824 184.025 49.92ZM268.29 110.08C261.378 110.08 255.362 109.056 250.242 107.008C245.207 105.045 241.325 102.187 238.594 98.432C235.863 94.6773 234.498 90.112 234.498 84.736H253.698C253.698 87.04 254.082 88.8746 254.85 90.24C255.703 91.6906 257.282 92.672 259.586 93.184C261.89 93.7813 265.218 94.08 269.57 94.08C273.666 94.08 276.866 93.696 279.17 92.928C281.559 92.16 283.223 90.6666 284.162 88.448C285.101 86.3146 285.57 83.1573 285.57 78.976V40.576L286.85 40.192V22.912H304.77V77.696C304.77 85.2053 303.319 91.3066 300.418 96C297.517 100.779 293.335 104.32 287.874 106.624C282.498 108.928 275.97 110.08 268.29 110.08ZM260.61 80.512C254.21 80.512 248.791 79.3173 244.354 76.928C239.917 74.5386 236.503 71.1253 234.114 66.688C231.725 62.2506 230.53 57.0453 230.53 51.072C230.53 45.0986 231.767 39.936 234.242 35.584C236.717 31.1466 240.258 27.7333 244.866 25.344C249.474 22.8693 254.978 21.632 261.378 21.632C267.949 21.632 273.41 23.04 277.762 25.856C282.114 28.672 284.802 32.8533 285.826 38.4H289.41L288.002 50.304H285.57C285.57 47.4026 284.887 45.0986 283.522 43.392C282.157 41.6 280.151 40.32 277.506 39.552C274.861 38.6986 271.533 38.272 267.522 38.272C263.426 38.272 260.055 38.6986 257.41 39.552C254.85 40.32 252.93 41.6426 251.65 43.52C250.455 45.312 249.858 47.8293 249.858 51.072C249.858 54.2293 250.455 56.7466 251.65 58.624C252.93 60.5013 254.85 61.8666 257.41 62.72C259.97 63.5733 263.255 64 267.266 64C273.41 64 277.975 63.0613 280.962 61.184C284.034 59.3066 285.57 56.1493 285.57 51.712H288.002V64.512H284.546C283.522 69.2906 281.047 73.1733 277.122 76.16C273.197 79.0613 267.693 80.512 260.61 80.512ZM348.998 88.32C341.915 88.32 335.643 87.1253 330.182 84.736C324.721 82.3466 320.497 78.6773 317.51 73.728C314.523 68.7786 313.03 62.5493 313.03 55.04C313.03 48.2133 314.523 42.3253 317.51 37.376C320.497 32.3413 324.635 28.4586 329.926 25.728C335.302 22.9973 341.531 21.632 348.614 21.632C355.611 21.632 361.713 22.8266 366.918 25.216C372.209 27.6053 376.305 31.1466 379.206 35.84C382.107 40.448 383.558 46.08 383.558 52.736C383.558 53.8453 383.515 54.8693 383.43 55.808C383.345 56.7466 383.217 57.7706 383.046 58.88H325.446V48.768H369.478L365.126 55.04C365.126 54.1866 365.126 53.376 365.126 52.608C365.126 51.84 365.126 51.072 365.126 50.304C365.126 45.44 363.803 41.9413 361.158 39.808C358.513 37.6746 354.203 36.608 348.23 36.608C341.745 36.608 337.222 37.888 334.662 40.448C332.102 42.9226 330.822 46.8906 330.822 52.352V57.216C330.822 62.6773 332.102 66.688 334.662 69.248C337.222 71.7226 341.787 72.96 348.358 72.96C353.99 72.96 357.958 72.2346 360.262 70.784C362.566 69.3333 363.718 67.2426 363.718 64.512V63.232H382.918V64.64C382.918 69.248 381.51 73.344 378.694 76.928C375.878 80.512 371.91 83.328 366.79 85.376C361.755 87.3386 355.825 88.32 348.998 88.32ZM455.354 88.32C445.967 88.32 437.818 86.528 430.906 82.944C424.079 79.2746 418.789 74.1546 415.034 67.584C411.365 60.928 409.53 53.12 409.53 44.16C409.53 35.2 411.365 27.4346 415.034 20.864C418.789 14.208 424.079 9.08797 430.906 5.50397C437.818 1.83464 445.967 -2.28882e-05 455.354 -2.28882e-05C464.314 -2.28882e-05 472.037 1.40798 478.522 4.22398C485.093 7.03998 490.17 11.0506 493.754 16.256C497.338 21.4613 499.13 27.7333 499.13 35.072V36.992H477.754V35.072C477.754 29.44 476.005 25.2586 472.506 22.528C469.093 19.7973 463.503 18.432 455.738 18.432C449.509 18.432 444.474 19.2853 440.634 20.992C436.879 22.6133 434.149 25.3013 432.442 29.056C430.735 32.7253 429.882 37.76 429.882 44.16C429.882 50.4746 430.735 55.5093 432.442 59.264C434.149 63.0186 436.879 65.7493 440.634 67.456C444.474 69.0773 449.509 69.888 455.738 69.888C463.503 69.888 469.093 68.5226 472.506 65.792C476.005 63.0613 477.754 58.88 477.754 53.248V51.328H499.13V53.248C499.13 60.5013 497.338 66.7733 493.754 72.064C490.17 77.2693 485.093 81.28 478.522 84.096C472.037 86.912 464.314 88.32 455.354 88.32ZM572.218 87.04H554.298V71.808L553.274 71.552V49.152C553.274 44.9706 552.207 42.1546 550.074 40.704C548.026 39.2533 544.442 38.528 539.322 38.528C534.458 38.528 530.959 39.2533 528.826 40.704C526.693 42.1546 525.626 44.7146 525.626 48.384V48.896H506.298V48.512C506.298 43.2213 507.706 38.5706 510.522 34.56C513.338 30.464 517.306 27.3066 522.426 25.088C527.631 22.784 533.733 21.632 540.73 21.632C547.898 21.632 553.786 22.784 558.394 25.088C563.087 27.392 566.543 30.6346 568.762 34.816C571.066 38.912 572.218 43.776 572.218 49.408V87.04ZM527.162 88.32C520.25 88.32 514.831 86.784 510.906 83.712C506.981 80.64 505.018 76.4586 505.018 71.168C505.018 67.9253 505.786 65.152 507.322 62.848C508.858 60.544 511.162 58.7093 514.234 57.344C517.306 55.8933 521.146 54.912 525.754 54.4L554.554 51.456V62.464L531.002 65.152C528.698 65.3226 526.991 65.792 525.882 66.56C524.858 67.2426 524.346 68.352 524.346 69.888C524.346 71.5946 525.029 72.832 526.394 73.6C527.759 74.368 529.85 74.752 532.666 74.752C537.274 74.752 541.071 74.3253 544.058 73.472C547.045 72.6186 549.306 71.2533 550.842 69.376C552.463 67.4133 553.274 64.8106 553.274 61.568L555.066 61.44V72.32H553.274C551.823 77.2693 548.879 81.1946 544.442 84.096C540.09 86.912 534.33 88.32 527.162 88.32ZM601.15 87.04H581.95V22.912H599.742V41.216L601.15 41.856V87.04ZM601.15 49.92H597.31V39.936H600.894C601.491 36.4373 602.643 33.3226 604.35 30.592C606.142 27.776 608.531 25.6 611.518 24.064C614.505 22.4426 618.131 21.632 622.398 21.632C627.262 21.632 631.145 22.656 634.046 24.704C637.033 26.6666 639.209 29.3546 640.574 32.768C641.939 36.096 642.622 39.8506 642.622 44.032V54.656H623.422V48C623.422 44.416 622.611 41.856 620.99 40.32C619.454 38.6986 616.723 37.888 612.798 37.888C608.531 37.888 605.502 38.8693 603.71 40.832C602.003 42.7946 601.15 45.824 601.15 49.92ZM668.775 87.04H649.575V22.912H667.367V41.216L668.775 41.856V87.04ZM668.775 49.92H664.935V39.936H668.519C669.116 36.4373 670.268 33.3226 671.975 30.592C673.767 27.776 676.156 25.6 679.143 24.064C682.13 22.4426 685.756 21.632 690.023 21.632C694.887 21.632 698.77 22.656 701.671 24.704C704.658 26.6666 706.834 29.3546 708.199 32.768C709.564 36.096 710.247 39.8506 710.247 44.032V54.656H691.047V48C691.047 44.416 690.236 41.856 688.615 40.32C687.079 38.6986 684.348 37.888 680.423 37.888C676.156 37.888 673.127 38.8693 671.335 40.832C669.628 42.7946 668.775 45.824 668.775 49.92ZM736.4 87.04H717.2V22.912H736.4V87.04ZM736.4 16.384H717.2V1.27998H736.4V16.384ZM765.65 87.04H746.45V1.27998H765.65V87.04ZM794.9 87.04H775.7V1.27998H794.9V87.04ZM839.126 88.32C831.873 88.32 825.473 86.9546 819.926 84.224C814.465 81.4933 810.198 77.6533 807.126 72.704C804.054 67.6693 802.518 61.7813 802.518 55.04C802.518 48.2133 804.054 42.3253 807.126 37.376C810.198 32.3413 814.465 28.4586 819.926 25.728C825.473 22.9973 831.873 21.632 839.126 21.632C846.465 21.632 852.865 22.9973 858.326 25.728C863.787 28.4586 868.054 32.3413 871.126 37.376C874.198 42.3253 875.734 48.2133 875.734 55.04C875.734 61.7813 874.198 67.6693 871.126 72.704C868.054 77.6533 863.787 81.4933 858.326 84.224C852.865 86.9546 846.465 88.32 839.126 88.32ZM839.126 71.296C845.611 71.296 850.134 70.016 852.694 67.456C855.339 64.8106 856.662 60.672 856.662 55.04C856.662 49.3226 855.339 45.1413 852.694 42.496C850.134 39.8506 845.611 38.528 839.126 38.528C832.641 38.528 828.075 39.8506 825.43 42.496C822.87 45.1413 821.59 49.3226 821.59 55.04C821.59 60.672 822.87 64.8106 825.43 67.456C828.075 70.016 832.641 71.296 839.126 71.296Z" fill="#111111"/>
</svg>
