<?xml version="1.0" encoding="utf-8"?>
<!-- Generator: Adobe Illustrator 23.0.2, SVG Export Plug-In . SVG Version: 6.00 Build 0)  -->
<svg version="1.1" id="Capa_1" xmlns="http://www.w3.org/2000/svg" xmlns:xlink="http://www.w3.org/1999/xlink" x="0px" y="0px"
	 viewBox="0 0 283.5 283.5" style="enable-background:new 0 0 283.5 283.5;" xml:space="preserve">
<g>
	<g>
		<path d="M278.5,239.2c2.3,2.3,2.2,6.2-0.3,8.4c-16.4,14.3-37.2,22.2-59.1,22.2c-19.7,0-37.9-6.3-52.7-17.1
			c-1.3-0.9-1.4-2.7-0.3-3.8c10.7-11.5,18.8-25.5,23.3-41c0.5-1.9,2.8-2.5,4.2-1.2c6.7,6.3,15.7,10.2,25.5,10.2
			c8.2,0,16-2.7,22.5-7.6c2.3-1.7,5.4-1.6,7.4,0.5L278.5,239.2z"/>
	</g>
</g>
<g>
	<path d="M95.5,269.7c-49.1,1.9-90-35.9-93.2-83.8c-0.2-3.3,2.4-6.1,5.7-6.1h41.8c2.8,0,5.2,2.1,5.6,4.9
		c2.6,19.7,20.7,34.5,41.6,31.8c18.7-2.4,32.2-19.2,32.2-38V104c0-49.6,40.6-92.4,90.2-92.3c21.9,0.1,42.5,7.9,58.8,22.1
		c2.5,2.2,2.7,6,0.3,8.3L249,71.8c-2,2-5.2,2.2-7.4,0.5c-6.6-5.1-14.8-7.8-23.3-7.6c-20.4,0.4-36.2,18.1-36.2,38.5v74.4
		C182,226.3,144.2,267.8,95.5,269.7z"/>
</g>
</svg>
