<?xml version="1.0" encoding="UTF-8"?>
<svg id="Capa_1" data-name="Capa 1" xmlns="http://www.w3.org/2000/svg" version="1.1" viewBox="0 0 745.5 221">
  <defs>
    <style>
      .cls-1 {
        fill: #000;
        stroke-width: 0px;
      }
    </style>
  </defs>
  <path class="cls-1" d="M119.4,154.7c0,8.8-1.4,16.8-4.1,23.9-2.7,7.1-6.6,13.2-11.5,18.1-5,5-11,8.8-18.1,11.5-7.1,2.7-15.1,4.1-23.9,4.1s-13.7-1.3-19.8-3.9c-6.1-2.6-11.4-6.1-16-10.4-4.6-4.3-8.2-9.2-10.8-14.8-2.6-5.5-3.9-11.3-3.9-17.3,0-10.7,2.2-18.7,6.6-23.9,4.4-5.2,9.7-8.5,15.9-9.8l19.7,16.9c-18.8,2.8-28.1,12.7-28.1,29.5s.8,7,2.5,10.4c1.7,3.4,4.1,6.4,7.3,9,3.2,2.6,7,4.7,11.5,6.3,4.5,1.6,9.6,2.4,15.2,2.4s8.8-1,12.9-3c4.1-2,7.7-5.1,10.8-9.3,3.1-4.2,5.5-9.6,7.3-16.2,1.8-6.6,2.7-14.4,2.7-23.6V18.2l-16.9-4.2v-2.8h57.7v2.8l-16.9,4.2v136.5Z"/>
  <path class="cls-1" d="M288.2,109.7c0,17.3-1.9,32.3-5.8,45.2-3.8,12.9-8.9,23.5-15.2,32.1-6.3,8.5-13.4,14.9-21.2,19.1s-15.9,6.3-23.9,6.3-16-2.1-23.9-6.3c-7.9-4.2-15-10.6-21.2-19.1-6.3-8.5-11.4-19.2-15.2-32.1-3.8-12.8-5.8-27.9-5.8-45.2s1.9-32.3,5.8-45.2c3.8-12.8,8.9-23.5,15.2-32.1,6.3-8.5,13.4-14.9,21.2-19.1,7.9-4.2,15.8-6.3,23.9-6.3s16,2.1,23.9,6.3c7.9,4.2,15,10.6,21.2,19.1,6.3,8.5,11.3,19.2,15.2,32.1,3.8,12.9,5.8,27.9,5.8,45.2ZM261.5,109.7c0-19.3-1.2-35.3-3.5-48-2.3-12.7-5.4-22.7-9.3-30.2-3.8-7.5-8.1-12.8-12.8-15.8-4.7-3-9.3-4.5-13.8-4.5s-9.1,1.5-13.8,4.5c-4.7,3-9,8.3-12.8,15.8-3.8,7.5-6.9,17.6-9.3,30.2-2.3,12.7-3.5,28.7-3.5,48s1.2,35.3,3.5,48c2.3,12.7,5.4,22.7,9.3,30.2,3.8,7.5,8.1,12.8,12.8,15.8,4.7,3,9.3,4.5,13.8,4.5s9.1-1.5,13.8-4.5c4.7-3,9-8.3,12.8-15.8,3.8-7.5,6.9-17.6,9.3-30.2,2.3-12.7,3.5-28.7,3.5-48Z"/>
  <path class="cls-1" d="M364.2,11.2c12,0,22.4,1.3,31.2,3.9,8.8,2.6,16.1,6.2,21.9,10.7,5.8,4.5,10.1,9.7,12.9,15.6,2.8,5.9,4.2,12.2,4.2,19s-.8,10.3-2.4,14.5c-1.6,4.2-3.7,8-6.2,11.3-2.5,3.3-5.5,6-8.9,8.3s-6.8,4.1-10.1,5.6c-8.1,3.6-17.2,5.8-27.3,6.8,8.3.9,15.8,2.9,22.5,5.9,5.8,2.6,11.3,6.5,16.3,11.5s8.1,11.9,9,20.5l5.6,49.2c.4,3.6,1.2,6.1,2.5,7.6,1.3,1.5,2.8,2.3,4.5,2.3s1.9-.3,3-1c1-.7,2-1.5,3-2.4.9-.9,1.8-2.2,2.5-3.7l2.8,2.8c-1.1,2.4-2.7,4.6-4.8,6.5-1.7,1.5-3.9,2.9-6.6,4.2-2.7,1.3-6,2-9.7,2-6.4,0-11.6-1.8-15.6-5.5-4-3.7-6.3-7.9-6.9-12.8l-5.6-49.2c-.8-6.4-2-11.8-3.7-16.2-1.7-4.4-4-8-6.9-10.8-2.9-2.8-6.6-4.9-11.1-6.2-4.5-1.3-9.9-2-16.3-2h-11.3v91.4l16.9,4.2v2.8h-57.7v-2.8l16.9-4.2V18.2l-16.9-4.2v-2.8h52.1ZM407.8,60.4c0-14.1-3.8-24.9-11.3-32.4-7.5-7.5-18.3-11.3-32.4-11.3h-11.3v87.2h11.3c14.1,0,24.9-3.8,32.4-11.3,7.5-7.5,11.3-18.3,11.3-32.4Z"/>
  <path class="cls-1" d="M565.3,118.1h-28.1v-5.6h52.1v21.1c0,12.8-1.6,24-4.9,33.8-3.3,9.8-7.6,18-12.9,24.6-5.3,6.7-11.5,11.7-18.4,15.2-6.9,3.5-14.1,5.2-21.4,5.2s-15.4-2.1-23.1-6.3c-7.7-4.2-14.6-10.6-20.8-19.1-6.2-8.5-11.2-19.2-15.1-32.1-3.8-12.8-5.8-27.9-5.8-45.2s1.9-32.3,5.8-45.2c3.8-12.8,8.9-23.5,15.2-32.1,6.3-8.5,13.4-14.9,21.2-19.1,7.9-4.2,15.8-6.3,23.9-6.3s8.6.8,12.2,2.3c3.7,1.5,6.8,3.1,9.4,4.8,3,2.1,5.6,4.4,7.9,7,1.5-2.8,3.5-5.4,6-7.9,2.5-2.4,5.2-4,8-4.8h4.2c-.4,2.8-.7,5.6-.8,8.4-.2,2.6-.3,5.4-.4,8.3,0,2.9-.1,5.8-.1,8.6s0,6.3.1,9.4c0,3.1.2,6,.4,8.6.2,3,.5,5.9.8,8.7h-4.2c-4.3-15.6-10.1-27.4-17.3-35.6-7.2-8.2-15.1-12.2-23.5-12.2s-10.4,1.5-15.5,4.5c-5.1,3-9.6,8.2-13.5,15.6-3.9,7.4-7.1,17.4-9.6,29.8-2.4,12.5-3.7,28.2-3.7,47.1s1.2,35.3,3.5,48c2.3,12.7,5.4,22.7,9.1,30.2,3.8,7.5,7.8,12.8,12.2,15.8,4.4,3,8.8,4.5,13.1,4.5s8.3-1.2,12.4-3.5c4.1-2.3,7.7-6.4,10.8-12.1,3.1-5.7,5.6-13.4,7.6-22.9,2-9.6,3-21.6,3-36v-15.5Z"/>
  <path class="cls-1" d="M711.6,202.5c0-7.9,1.6-15.2,4.8-21.9,3.2-6.8,7.2-12.6,12.1-17.4h2.8c-.4,2.4-.7,5-.8,7.6-.2,2.3-.3,4.7-.4,7.3,0,2.6-.1,5.2-.1,7.6,0,3.6,0,6.7.1,9.4,0,2.7.2,5.1.4,7.2.2,2.2.5,4.2.8,5.9h-116.8v-2.8l16.9-4.2V18.2l-16.9-4.2v-2.8h114c-.4,1.7-.7,3.7-.8,5.9-.2,2.1-.3,4.5-.4,7.2,0,2.7-.1,5.9-.1,9.4s0,5.2.1,7.7c0,2.5.2,4.9.4,7.2.2,2.6.5,5.2.8,7.6h-2.8c-4.9-4.9-8.9-10.7-12.1-17.4-3.2-6.8-4.8-14.1-4.8-21.9h-53.5v84.4h26.7l12.7-25.3h2.8v56.3h-2.8l-12.7-25.3h-26.7v95.7h56.3Z"/>
</svg>